<?xml version="1.0" encoding="UTF-8" standalone="no"?>
<svg
   data-logo="logo"
   viewBox="0 0 201 43"
   version="1.1"
   id="svg2"
   sodipodi:docname="logo.svg"
   inkscape:version="1.4.2 (ebf0e940d0, 2025-05-08)"
   xmlns:inkscape="http://www.inkscape.org/namespaces/inkscape"
   xmlns:sodipodi="http://sodipodi.sourceforge.net/DTD/sodipodi-0.dtd"
   xmlns:xlink="http://www.w3.org/1999/xlink"
   xmlns="http://www.w3.org/2000/svg"
   xmlns:svg="http://www.w3.org/2000/svg">
  <defs
     id="defs2">
    <linearGradient
       inkscape:collect="always"
       xlink:href="#linearGradient1"
       id="linearGradient2"
       x1="0.60351598"
       y1="20.809971"
       x2="39.6035"
       y2="20.809971"
       gradientUnits="userSpaceOnUse" />
    <linearGradient
       id="linearGradient1"
       inkscape:collect="always">
      <stop
         style="stop-color:#002a5c;stop-opacity:1;"
         offset="0"
         id="stop1" />
      <stop
         style="stop-color:#00eeff;stop-opacity:1;"
         offset="1"
         id="stop2" />
    </linearGradient>
    <linearGradient
       inkscape:collect="always"
       xlink:href="#linearGradient1"
       id="linearGradient3"
       gradientUnits="userSpaceOnUse"
       x1="0.60351598"
       y1="20.809971"
       x2="39.6035"
       y2="20.809971"
       gradientTransform="translate(-0.12135922,-0.06067961)" />
  </defs>
  <sodipodi:namedview
     id="namedview2"
     pagecolor="#ffffff"
     bordercolor="#000000"
     borderopacity="0.25"
     inkscape:showpageshadow="2"
     inkscape:pageopacity="0.0"
     inkscape:pagecheckerboard="0"
     inkscape:deskcolor="#d1d1d1"
     inkscape:zoom="16.48"
     inkscape:cx="34.678398"
     inkscape:cy="12.408981"
     inkscape:window-width="1920"
     inkscape:window-height="1023"
     inkscape:window-x="0"
     inkscape:window-y="25"
     inkscape:window-maximized="1"
     inkscape:current-layer="svg2" />
  <g
     id="logogram-3"
     style="fill:url(#linearGradient2)"
     transform="translate(0.1097234,1.0959485)">
    <path
       fill="#007B84"
       d="m 22.83524,1.3136604 c 1.6094,0.76279 2.8581,2.24706 3.2565,4.13292 l 1.3092,6.1970396 c 0.4478,2.1193 0.4863,4.2828 0.1363,6.379 0.0873,0.0137 0.1751,0.0252 0.2633,0.0344 0.4142,-1.8068 0.5339,-3.6866 0.3376,-5.5656 l -0.6582,-6.3007896 c -0.2444,-2.33992 -1.8494,-4.20459 -3.9409,-4.88194 -0.103,-0.00556 -0.2068,-0.00837 -0.3112,-0.00837 -0.132,0 -0.2629,0.00449 -0.3926,0.01334 z m -0.3435,0.03385 c 1.6933,0.69746 3.0254,2.19798 3.4345,4.13446 l 1.3092,6.1969496 c 0.4432,2.098 0.4816,4.2396 0.1351,6.3145 -0.0724,-0.0138 -0.1444,-0.0292 -0.2161,-0.0461 0.2415,-2.3487 -0.0013,-4.745 -0.7406,-7.034 l -1.9458,-6.0253496 c -0.4849,-1.50165 -1.5091,-2.67547 -2.7866,-3.37499 0.2629,-0.07407 0.5335,-0.12971 0.8103,-0.16547 z m 0.0226,-0.17439 c 0.1234,-0.01496 0.2479,-0.02611 0.3735,-0.03329 -0.2359,-0.04638 -0.4764,-0.07803 -0.7204,-0.09405 0.1171,0.03884 0.2328,0.08132 0.3469,0.12734 z m -1.0148,-0.13192 c 0.2274,0.04796 0.4507,0.1097 0.669,0.18447 -0.2401,0.04383 -0.4749,0.10228 -0.7039,0.17441 -0.2155,-0.10667 -0.4374,-0.20017 -0.6646,-0.27988 0.1283,-0.02246 0.2582,-0.04072 0.3895,-0.05461 0.1037,-0.01097 0.2071,-0.01908 0.31,-0.02439 z m 0.0134,-0.17108301 c 0.7145,-0.034214 1.4084,0.06238 2.0572,0.26983301 3.0952,0.17833 5.5504,2.76012 5.5504,5.91889 V 13.39422 c 0,1.601 -0.2235,3.1787 -0.653,4.6911 h 5.1219 c 3.2545,0 5.8927,2.6543 5.8927,5.9287 0,0.8445 -0.1754,1.6477 -0.4917,2.3748 -0.1154,0.71 -0.3536,1.3726 -0.6901,1.9678 -0.1885,0.6942 -0.4942,1.3282 -0.8908,1.8849 -0.2594,0.6699 -0.6288,1.2678 -1.0804,1.7793 -0.3278,0.6399 -0.7579,1.1966 -1.2611,1.6583 -0.3926,0.602 -0.8783,1.1101 -1.4267,1.5164 -0.4529,0.557 -0.9885,1.0111 -1.5759,1.3573 -0.5081,0.5062 -1.0878,0.9014 -1.7078,1.184 -0.5577,0.4498 -1.1752,0.7819 -1.8208,0.9977 -0.6017,0.3891 -1.2506,0.6545 -1.9155,0.8014 -0.6388,0.3235 -1.3116,0.5192 -1.988,0.5952 -0.669,0.2547 -1.3585,0.3785 -2.0392,0.383 -0.6917,0.1828 -1.3902,0.2335 -2.0676,0.1663 -0.7068,0.1092 -1.4068,0.0861 -2.0735,-0.0519 -0.7143,0.0341 -1.408,-0.0625 -2.0567,-0.2699 -3.0954,-0.1781 -5.5508,-2.7599 -5.5508,-5.9189 v -5.2822 c 0,-1.9765 0.3405,-3.9177 0.989,-5.7441 H 6.3748608 c -3.25445,0 -5.89270402,-2.6544 -5.89270402,-5.9287 0,-0.844 0.175261,-1.6467 0.49116401,-2.3735 0.11523001,-0.7102 0.35337001,-1.3731 0.68992001,-1.9685 0.18838,-0.6941 0.494,-1.3281 0.89045,-1.8847 0.25971,-0.6713 0.63004,-1.2701996 1.0828,-1.7824896 0.32774,-0.6392 0.75765,-1.19508 1.26036,-1.65637 0.39223,-0.60126 0.87742,-1.10899 1.42521,-1.51499 0.45267,-0.55703 0.98819,-1.01119 1.5754,-1.3575 0.50823,-0.50653 1.08815,-0.90196 1.70833,-1.18464 0.5581492,-0.45034 1.1761492,-0.78262 1.8224492,-0.99848 0.6017,-0.38893 1.2506,-0.65425 1.9154,-0.80092 0.6389,-0.32361 1.3118,-0.5193 1.9884,-0.59527 0.6689,-0.25462 1.3584,-0.37845001 2.0391,-0.38287001 0.6918,-0.182911 1.3904,-0.233559 2.0679,-0.166349 0.707,-0.109169 1.4071,-0.086091 2.0739,0.051976 z m -1.4049,0.053902 c 0.2444,-0.009743 0.4869,-0.003565 0.7263,0.017751 -0.124,0.02036 -0.2467,0.04455 -0.3678,0.07242 -0.1184,-0.03377 -0.238,-0.06386 -0.3585,-0.090171 z m -1.3362,0.036721 c -0.2403,0.00396 -0.4822,0.02331 -0.7242,0.05869 0.1226,0.0135 0.2447,0.03085 0.3658,0.052 0.1176,-0.04045 0.2371,-0.0774 0.3584,-0.11069001 z m -0.0156,0.18105001 c 0.1252,-0.03582 0.2524,-0.06762 0.3816,-0.09525 0.102,-0.02181 0.2039,-0.04074 0.3057,-0.05684 0.2311,0.02379 0.4596,0.06171 0.6844,0.11313001 -0.234,0.06882 -0.4615,0.15164 -0.6816,0.24741 -0.2254,-0.08342 -0.4558,-0.15308 -0.6901,-0.20845 z m -0.6702,0.0534 c -0.229,-0.02752 -0.4603,-0.0412 -0.6927,-0.04055 -0.0995,0.02673 -0.199,0.05629 -0.2983,0.08873 -0.1254,0.04103 -0.2486,0.08601 -0.3693,0.13476 0.2388,0.03045 0.4752,0.07551 0.7081,0.13479 0.2089,-0.1184 0.4266,-0.22468 0.6522,-0.31773 z m -0.4169,0.38284 c 0.2418,-0.12742 0.4949,-0.23842 0.7582,-0.33127 0.2706,0.04933 0.5371,0.11812 0.7973,0.20555 -0.2607,0.1267 -0.5103,0.27193 -0.7468,0.43383 -0.2621,-0.12257 -0.5325,-0.22548 -0.8087,-0.30811 z m -0.4453,0.05971 c -0.2678,-0.05962 -0.54,-0.10003 -0.8144,-0.12061 -0.2522,0.12005 -0.4925,0.25708 -0.7197,0.40925 0.2834,0.05313 0.5629,0.12708 0.8364,0.22144 0.2185,-0.18593 0.4516,-0.35664 0.6977,-0.51008 z m -0.5132,0.57721 c 0.2334,-0.19175 0.4831,-0.36587 0.7474,-0.51989 0.2936,0.07847 0.5811,0.18032 0.8594,0.30474 -0.2615,0.1921 -0.5062,0.40508 -0.7318,0.63624 -0.2811,-0.16521 -0.5739,-0.30575 -0.875,-0.42109 z m -0.1484,0.12616 c -0.2504,0.22042 -0.4805,0.46176 -0.6879,0.72068 0.3229,0.15848 0.6339,0.34818 0.9285,0.56883 0.194,-0.30919 0.4159,-0.59977 0.6626,-0.86785 -0.2897,-0.16759 -0.592,-0.30835 -0.9032,-0.42166 z m -0.1838,-0.0634 c -0.2401,0.21854 -0.4613,0.45607 -0.6616,0.70967 -0.2967,-0.1348 -0.6026,-0.24381 -0.9142,-0.32686 0.2122,-0.21521 0.4424,-0.4146 0.6893,-0.59555 0.3002,0.04716 0.5968,0.11824 0.8865,0.21274 z m -0.9295,-0.39134 c 0.1955,-0.13974 0.4009,-0.26835 0.6157,-0.38463 -0.2305,-0.00329 -0.4619,0.00743 -0.6928,0.03249 -0.0964,0.03708 -0.1922,0.07695 -0.2876,0.11966 -0.1205,0.05402 -0.2384,0.11172 -0.3533,0.17291 0.2405,0.00518 0.4803,0.02511 0.718,0.05957 z m -1.0181,0.11192 c 0.2749,-0.00838 0.5498,0.00318 0.8222,0.0343 -0.2288,0.17846 -0.4428,0.3727 -0.6408,0.58057 -0.2816,-0.06508 -0.5674,-0.10921 -0.8546,-0.13225 0.2102,-0.17521 0.4349,-0.33674 0.6732,-0.48262 z m -0.0498,-0.16862 c 0.1066,-0.06415 0.2159,-0.12529 0.3277,-0.18323 -0.2343,0.05415 -0.4668,0.12366 -0.6962,0.2089 0.1227,-0.01245 0.2456,-0.02099 0.3685,-0.02567 z m -0.9804,0.29473 c 0.2271,-0.04922 0.4561,-0.0842 0.6857,-0.10516 -0.2015,0.1382 -0.3924,0.28768 -0.5723,0.44719 -0.24,-0.00929 -0.4805,-0.0039 -0.7203,0.01623 0.1079,-0.07292 0.2191,-0.14266 0.3334,-0.20904 0.0904,-0.05249 0.1816,-0.10222 0.2735,-0.14922 z m -0.6478,0.18129 c -0.2272,0.07845 -0.4512,0.172 -0.6705,0.28086 0.1207,-0.02528 0.2421,-0.04669 0.3639,-0.06426 0.0992,-0.07498 0.2015,-0.14724 0.3066,-0.2166 z m -0.5802,0.43611 c -0.186,0.15867 -0.3604,0.32745 -0.5228,0.50505 -0.2397,0.01602 -0.4784,0.04669 -0.7148,0.09194 0.0998,-0.08387 0.2031,-0.16492 0.3099,-0.24296 0.0845,-0.06178 0.1701,-0.12091 0.2568,-0.17737 0.2207,-0.07282 0.4448,-0.13167 0.6709,-0.17666 z m 0.3405,-0.05704 c -0.2219,0.17018 -0.4286,0.35448 -0.6195,0.55087 0.2881,-0.00729 0.5769,0.00654 0.8637,0.04164 0.1754,-0.22758 0.3681,-0.44326 0.5771,-0.64484 -0.2742,-0.0023 -0.5487,0.0151 -0.8213,0.05233 z m 1.0622,-0.04522 c -0.2267,0.20592 -0.435,0.42845 -0.6237,0.6648 0.3184,0.04982 0.6339,0.12604 0.9429,0.22885 0.1729,-0.27326 0.3682,-0.53274 0.5844,-0.77533 -0.2979,-0.06349 -0.6002,-0.10299 -0.9036,-0.11832 z m 1.0929,0.16205 c -0.2261,0.24553 -0.4298,0.50974 -0.6093,0.78903 0.3376,0.12368 0.6668,0.27964 0.9827,0.46814 0.1609,-0.32788 0.3513,-0.64019 0.5689,-0.93272 -0.3056,-0.13624 -0.621,-0.24447 -0.9423,-0.32445 z m 1.0994,0.39742 c -0.2234,0.29663 -0.4181,0.61456 -0.5811,0.94907 0.2779,0.17691 0.5447,0.3797 0.7973,0.60853 l 0.2042,0.18501 c 0.1338,-0.40863 0.3108,-0.79905 0.5261,-1.16514 -0.2995,-0.22565 -0.6168,-0.41823 -0.9465,-0.57747 z m 1.0814,0.68233 c -0.2168,0.37169 -0.393,0.76898 -0.5231,1.18513 l 1.093,0.99022 c 0.0739,-0.43664 0.1953,-0.85701 0.3585,-1.25554 l -0.2358,-0.26355 c -0.2161,-0.24149 -0.448,-0.4603 -0.6926,-0.65626 z m 1.0544,1.06058 c -0.1561,0.39707 -0.2696,0.81577 -0.3348,1.2504 l 3.0948,2.80349 c 2.4854,2.2516096 4.2347,5.1728096 5.0661,8.3807096 0.0154,0.009 0.0308,0.018 0.0463,0.0268 -0.5688,-3.0131 -1.9472,-5.8406 -4.0207,-8.1575696 z m 8.0637,12.5655996 c -0.5584,-3.0944 -1.9607,-6.0005 -4.0863,-8.3756996 l -3.9056,-4.36405 c 0.1727,-0.40022 0.3892,-0.77683 0.6435,-1.12371 0.223,0.22068 0.4309,0.46275 0.6208,0.72574 l 3.7013,5.12552 c 1.7252,2.3889996 2.7825,5.1676996 3.1042,8.0515996 -0.0262,-0.0129 -0.0521,-0.026 -0.0779,-0.0394 z m -0.152,0.112 c -0.0094,-0.0051 -0.0188,-0.0102 -0.0282,-0.0153 0.0191,0.0784 0.0378,0.1571 0.0559,0.2358 0.0037,0.0029 0.0073,0.0059 0.011,0.0089 -0.0124,-0.0765 -0.0253,-0.1531 -0.0387,-0.2294 z m 0.2334,0.3802 c -0.0143,-0.0948 -0.0293,-0.1894 -0.0451,-0.2838 0.0207,0.0102 0.0417,0.0202 0.0625,0.0301 0.0095,0.0949 0.0182,0.19 0.0261,0.2853 -0.0146,-0.0105 -0.0291,-0.021 -0.0435,-0.0316 z m -0.5283,-0.7526 c -0.8406,-3.1082 -2.5539,-5.9361 -4.97,-8.1248296 l -3.0086,-2.72537 c -0.0246,0.2172 -0.0373,0.43807 -0.0373,0.66192 v 0.5157 l 1.9344,1.41403 c 2.8355,2.0727496 4.9434,4.9618496 6.0699,8.2510496 0.0039,0.0024 0.0077,0.005 0.0116,0.0075 z m -0.3477,-0.4418 c -1.1515,-3.0531 -3.1676,-5.7304 -5.8332,-7.6789996 l -1.835,-1.34144 v 0.90948 l 0.7157,0.41583 c 3.0763,1.7869296 5.4963,4.4863296 6.9525,7.6951296 z m -7.8374,-8.2092096 v -0.93487 l -1.2711,-0.92913 c -0.002,0.21865 0.0083,0.4397 0.0316,0.66242 l 0.0535,0.51271 z m -1.1641,-0.47962 1.1641,0.67621 v 0.71142 c -0.1043,-0.04931 -0.2092,-0.09761 -0.3147,-0.1449 l -0.7549,-0.33811 z m -0.203,-0.31447 -0.0407,-0.38971 c -0.0282,-0.27017 -0.0379,-0.53798 -0.0301,-0.80217 l -1.2149,-0.88804 c -0.0707,0.42098 -0.0951,0.85421 -0.0691,1.29291 z m -1.339,-0.58125 1.3609,0.7905 0.0971,0.92991 -1.2512,-0.56046 -0.1065,-0.50418 c -0.0463,-0.21915 -0.0795,-0.43802 -0.1003,-0.65577 z m -0.1903,-0.30709 c -0.0179,-0.44249 0.0139,-0.879 0.0913,-1.30293 l -0.2851,-0.20833 c -0.2614,-0.19111 -0.5335,-0.35673 -0.8134,-0.49731 -0.1353,0.40885 -0.2256,0.83424 -0.267,1.26843 z m -1.2889,-0.5522 1.3007,0.75554 c 0.0196,0.26367 0.0572,0.5291 0.1133,0.7949 l 0.081,0.3832 -1.4295,-0.64039 c -0.0714,-0.4336 -0.0921,-0.86709 -0.0655,-1.29325 z m -0.1459,-0.28122 c 0.0464,-0.42759 0.1389,-0.84642 0.2739,-1.24947 -0.3396,-0.15802 -0.6897,-0.28 -1.0451,-0.36675 -0.1573,0.33683 -0.282,0.68848 -0.3724,1.0497 0.3086,0.11497 0.6118,0.2576 0.9064,0.42872 z m -1.1827,-0.39953 c 0.2931,0.1104 0.581,0.24652 0.861,0.40914 l 0.3045,0.1769 c -0.033,0.42979 -0.0192,0.86732 0.0446,1.30557 l -1.3438,-0.60194 c -0.004,-0.4362 0.0416,-0.8688 0.1337,-1.28967 z m -0.121,-0.22402 c 0.0896,-0.3543 0.2114,-0.69957 0.3637,-1.03116 -0.327,-0.0693 -0.6579,-0.10914 -0.9886,-0.12016 -0.1704,0.28745 -0.3151,0.58845 -0.433,0.89916 0.3559,0.05029 0.71,0.13394 1.0579,0.25216 z m -1.1171,-0.0885 c 0.3625,0.04888 0.7233,0.13336 1.0775,0.25478 -0.0923,0.41508 -0.1408,0.84137 -0.1425,1.27152 l -0.2503,-0.11211 c -0.3107,-0.1392 -0.6271,-0.24916 -0.9459,-0.33105 0.0523,-0.36875 0.1398,-0.7316 0.2612,-1.08314 z m -0.1134,-0.18544 c 0.1127,-0.30343 0.2501,-0.59807 0.4114,-0.88053 -0.3046,2.3e-4 -0.6085,0.02485 -0.9085996,0.07337 -0.1791796,0.24884 -0.3368696,0.51002 -0.4725996,0.78065 0.32184,-0.01794 0.6461992,-0.0094 0.9697992,0.02651 z m -1.0543392,0.14945 c 0.33014,-0.02385 0.6633392,-0.01904 0.9958392,0.01548 -0.1169,0.34579 -0.2023,0.70199 -0.2546,1.06378 -0.3583592,-0.08099 -0.7191892,-0.12696 -1.0782992,-0.13954 0.08491,-0.32138 0.1975,-0.63594 0.33706,-0.93972 z m -0.11114,-0.16177 c 0.12453,-0.25925 0.26838,-0.5105 0.43126,-0.75137 -0.26892,0.05517 -0.53401,0.1297 -0.79309,0.22324 -0.18183,0.21284 -0.34581,0.43628 -0.49192,0.66827 0.28039,-0.06749 0.5658,-0.11442 0.85375,-0.14014 z m -0.97837,0.34771 c 0.29342,-0.07985 0.59313,-0.13633 0.89602,-0.16863 -0.13099,0.29786 -0.23703,0.60532 -0.31756,0.91891 -0.32558,-0.00168 -0.64906,0.02396 -0.96727,0.07566 0.10677,-0.28336 0.2364,-0.55966 0.38881,-0.82594 z m -0.11151,-0.14554 c 0.12207,-0.20763 0.25772,-0.40914 0.40684,-0.60319 -0.21198,0.09136 -0.41904,0.19589 -0.61991,0.31338 -0.07288,0.07314 -0.14421,0.14864 -0.2139,0.2265 -0.08836,0.09879 -0.17272,0.19982 -0.25315,0.30287 0.22182,-0.09374 0.44901,-0.17372 0.68012,-0.23956 z m -0.885,0.51911 c 0.24787,-0.12024 0.50367,-0.22223 0.76521,-0.30537 -0.13692,0.25662 -0.25379,0.52157 -0.35063,0.79243 -0.28358,0.05586 -0.56243,0.13252 -0.83421,0.22908 0.1212,-0.246 0.26103,-0.4854 0.41963,-0.71614 z m -0.1136,-0.13366 c 0.07142,-0.10215 0.14639,-0.20262 0.22501,-0.30123 -0.19185,0.14524 -0.37605,0.30379 -0.55103,0.47543 0.10702,-0.06156 0.2157,-0.11965 0.32602,-0.1742 z m -0.77631,0.67058 c 0.18751,-0.1379 0.38249,-0.26358 0.58364,-0.37669 -0.12806,0.20861 -0.24197,0.42319 -0.34179,0.64243 -0.22286,0.08973 -0.44035,0.19309 -0.65111,0.30956 0.06917,-0.11085 0.14254,-0.2201 0.22014,-0.32756 0.0612,-0.08476 0.12428,-0.16734 0.18912,-0.24774 z m -0.51853,0.43094 c -0.17557,0.16444 -0.34207,0.34128 -0.49813,0.53017 0.09991,-0.0724 0.20192,-0.14152 0.30583,-0.20728 0.06034,-0.10898 0.12442,-0.21667 0.1923,-0.32289 z m -0.3534,0.63539 c -0.1882,0.13354 -0.36894,0.2789 -0.54101,0.43563 -0.0563,0.08698 -0.11061,0.17607 -0.16283,0.26699 -0.06586,0.11484 -0.12736,0.23097 -0.18454,0.34819 0.19745,-0.13794 0.40293,-0.2635 0.61518,-0.37605 0.07649,-0.2285 0.16749,-0.45387 0.2732,-0.67476 z m -0.34621,0.90884 c -0.23845,0.13592 -0.46739,0.28898 -0.68481,0.45818 -0.10766,0.2591 -0.19511,0.5227 -0.26286,0.78886 0.24576,-0.15114 0.50256,-0.2844 0.76832,-0.39824 0.03878,-0.28531 0.09843,-0.56907 0.17935,-0.8488 z m 0.00237,0.77447 c 0.04594,-0.29961 0.11571,-0.59703 0.20975,-0.8895 0.27032,-0.13931 0.55158,-0.25708 0.84103,-0.35204 -0.06664,0.31887 -0.10684,0.64176 -0.1208,0.96539 -0.31859,0.06645 -0.62955,0.15911 -0.92998,0.27615 z m -0.20505,0.2702 c -0.27799,0.12483 -0.54547,0.27157 -0.79982,0.43856 -0.06316,0.3006696 -0.10165,0.6037696 -0.11622,0.9066696 0.28663,-0.1481 0.58625,-0.2729 0.89619,-0.3724 -0.01975,-0.3234 -0.0133,-0.6487496 0.01985,-0.9728296 z m 0.14668,0.9220296 c -0.01796,-0.3321 -0.00749,-0.6662296 0.03202,-0.9985596 0.30648,-0.12529 0.6247,-0.22428 0.95134,-0.29476 -0.00508,0.36524 0.0232,0.73048 0.08459,1.0908196 -0.36553,0.0344 -0.72271,0.1029 -1.06795,0.2025 z m -0.15332,0.2254 c -0.31752,0.1045 -0.62371,0.2364 -0.91548,0.3931 -0.00478,0.3347 0.01953,0.6681 0.07188,0.9965 0.333,-0.1353 0.6811,-0.241 1.04106,-0.3136 -0.09849,-0.352 -0.16456,-0.7122 -0.19746,-1.076 z m 0.3645,1.0447 c -0.1013,-0.3581 -0.16798,-0.7255 -0.19917,-1.0963 0.3508,-0.1037 0.71449,-0.1742 1.08705,-0.2082 0.08336,0.417 0.21139,0.8262 0.38371,1.2198 h -0.27324 c -0.34029,0 -0.67385,0.0291 -0.99835,0.0847 z m -0.11864,0.1952 c -0.36699,0.073 -0.72135,0.1813 -1.05947,0.3213 0.30177,1.586 1.2612,3.036 2.76031,3.9068 l 5.4532292,3.1678 c 0.3876,0.2251 0.7422,0.4961 1.0575,0.805 0.0628,-0.1 0.1266,-0.1993 0.1914,-0.298 -0.3173,-0.4401 -0.704,-0.8317 -1.1493,-1.1572 l -5.0944392,-3.7239 c -1.06472,-0.7783 -1.79434,-1.8483 -2.15923,-3.0218 z m 8.5031692,7.7525 c -0.3207,-0.434 -0.7073,-0.8209 -1.1501,-1.1445 l -5.0943592,-3.7239 c -1.0281,-0.7515 -1.7345,-1.7829 -2.09098,-2.9149 0.30876,-0.0519 0.62587,-0.0789 0.94926,-0.0789 h 0.35098 c 0.32323,0.6791 0.78136,1.3072 1.37203,1.8423 l 4.6795692,4.2392 c 0.4813,0.4361 0.8723,0.9543 1.1588,1.525 -0.0592,0.0847 -0.1177,0.1699 -0.1752,0.2557 z m 0.0041,0.3005 c -0.0586,0.09 -0.1164,0.1806 -0.1732,0.2717 0.0279,0.0291 0.0554,0.0585 0.0826,0.0883 0.0485,-0.0913 0.0977,-0.1822 0.1478,-0.2726 -0.0187,-0.0294 -0.0378,-0.0584 -0.0572,-0.0874 z m 0.1508,-0.0794 c -0.0164,-0.0247 -0.033,-0.0493 -0.0498,-0.0736 0.0508,-0.0762 0.1023,-0.152 0.1543,-0.2273 0.0103,0.0225 0.0205,0.0451 0.0304,0.0679 -0.0456,0.0773 -0.0906,0.155 -0.1349,0.233 z m 0.0084,0.3327 c -0.0439,0.0805 -0.0872,0.1613 -0.1298,0.2424 0.0191,0.0224 0.0381,0.045 0.057,0.0678 0.036,-0.0822 0.0727,-0.1642 0.11,-0.246 -0.0123,-0.0214 -0.0246,-0.0429 -0.0372,-0.0642 z m 0.1241,-0.123 c -0.0097,-0.016 -0.0194,-0.0321 -0.0293,-0.0481 0.0373,-0.0663 0.075,-0.1325 0.1133,-0.1984 0.0051,0.0132 0.0102,0.0264 0.0152,0.0395 -0.0336,0.0688 -0.0666,0.1378 -0.0992,0.207 z m 0.0145,0.3738 c -0.0311,0.0696 -0.0617,0.1393 -0.0919,0.2093 0.0113,0.0148 0.0226,0.0297 0.0338,0.0445 0.0252,-0.0723 0.051,-0.1444 0.0773,-0.2164 -0.0063,-0.0125 -0.0127,-0.0249 -0.0192,-0.0374 z m 0.0985,-0.1758 c -0.0033,-0.0061 -0.0066,-0.0123 -0.01,-0.0184 0.025,-0.0542 0.0505,-0.1083 0.0761,-0.1623 6e-4,0.0017 0.0011,0.0034 0.0017,0.0051 -0.0229,0.0584 -0.0455,0.117 -0.0678,0.1756 z m 0.0235,0.4278 c -0.0199,0.0564 -0.0396,0.1129 -0.0589,0.1695 0.004,0.0058 0.008,0.0117 0.012,0.0174 0.0161,-0.0606 0.0325,-0.1212 0.0492,-0.1818 -7e-4,-0.0017 -0.0015,-0.0034 -0.0023,-0.0051 z m -0.1037,0.4073 c -0.0075,-0.0118 -0.0153,-0.0236 -0.023,-0.0353 -0.0238,0.0726 -0.0471,0.1453 -0.0699,0.2181 0.013,0.0136 0.0258,0.0272 0.0386,0.0409 0.0175,-0.0746 0.0358,-0.1492 0.0543,-0.2237 z m 0.0836,0.3778 c 0.0133,-0.0585 0.027,-0.1169 0.0411,-0.1752 9e-4,0.0016 0.0018,0.0031 0.0027,0.0048 -0.0104,0.0621 -0.0204,0.1243 -0.0301,0.1864 -0.0045,-0.0053 -0.0092,-0.0107 -0.0137,-0.016 z m -0.1842,0.0471 c -0.0164,-0.0184 -0.033,-0.0367 -0.0497,-0.0549 -0.0264,0.0881 -0.0521,0.1762 -0.077,0.2646 0.0234,0.0179 0.0467,0.0361 0.0697,0.0545 0.0184,-0.0882 0.0373,-0.1762 0.057,-0.2642 z m 0.0909,0.3858 c 0.0151,-0.0749 0.0308,-0.1497 0.0469,-0.2245 0.0088,0.0109 0.0178,0.0218 0.0266,0.0327 -0.0108,0.0762 -0.0211,0.1522 -0.031,0.2284 -0.0141,-0.0123 -0.0282,-0.0245 -0.0425,-0.0366 z m -0.1856,0.066 c -0.0267,-0.022 -0.0538,-0.0437 -0.081,-0.0651 -0.0282,0.1039 -0.0553,0.208 -0.0815,0.3123 0.0355,0.019 0.0707,0.0384 0.1057,0.0582 0.0179,-0.1019 0.0369,-0.2036 0.0568,-0.3054 z m 0.0989,0.3972 c 0.0156,-0.0905 0.032,-0.1808 0.0492,-0.271 0.0184,0.0164 0.0367,0.0329 0.0549,0.0494 -0.0104,0.0894 -0.02,0.1789 -0.0291,0.2683 -0.0248,-0.0158 -0.0499,-0.0313 -0.075,-0.0467 z m -0.1863,0.0867 c -0.0386,-0.0226 -0.0776,-0.0446 -0.1169,-0.066 -0.0291,0.1213 -0.0568,0.243 -0.0833,0.3649 0.0489,0.0166 0.0974,0.0338 0.1457,0.0517 0.017,-0.117 0.0351,-0.2339 0.0545,-0.3506 z m 0.1074,0.4136 c 0.0152,-0.1065 0.0313,-0.2129 0.0485,-0.3191 0.0294,0.0184 0.0584,0.0371 0.0874,0.0561 -0.0092,0.1033 -0.0175,0.2065 -0.0249,0.3098 -0.0368,-0.016 -0.0738,-0.0316 -0.111,-0.0468 z m -0.1859,0.1096 c -0.0521,-0.0197 -0.1044,-0.0386 -0.1571,-0.0566 -0.0291,0.1416 -0.0565,0.2835 -0.082,0.4256 0.0635,0.0098 0.1268,0.0207 0.1899,0.0327 0.0147,-0.134 0.0311,-0.268 0.0492,-0.4017 z m 0.1171,0.4363 c 0.0137,-0.124 0.0286,-0.2479 0.0449,-0.3718 0.0413,0.0173 0.0823,0.0351 0.1231,0.0534 -0.0071,0.1181 -0.013,0.2363 -0.0178,0.3544 -0.0498,-0.0127 -0.0999,-0.0247 -0.1502,-0.036 z m -0.1843,0.1353 c -0.0668,-0.013 -0.1338,-0.0246 -0.2011,-0.0349 -0.452,2.6709 -0.2636,5.4373 0.5839,8.0615 l 1.6224,5.0238 c 0.49,1.5169 1.5462,2.6894 2.8568,3.3575 0.2904,-0.0953 0.5706,-0.2134 0.8384,-0.3521 -0.9291,-0.603 -1.7003,-1.4759 -2.1837,-2.568 l -2.1355,-4.8256 c -1.2128,-2.7409 -1.6758,-5.7284 -1.3812,-8.6622 z m 5.8716,15.9635 c -0.9379,-0.5872 -1.7172,-1.4531 -2.2003,-2.5449 l -2.1355,-4.8256 c -1.1983,-2.708 -1.6573,-5.6591 -1.3693,-8.5578 0.0542,0.0123 0.1083,0.0255 0.162,0.0397 -0.0928,3.1428 0.6783,6.2779 2.2663,9.0451 l 2.6251,4.5747 c 0.3902,0.6798 0.894,1.2527 1.4735,1.708 -0.2565,0.2097 -0.5313,0.3976 -0.8218,0.5608 z m -0.0046,0.1966 c -0.2521,0.1361 -0.5153,0.2542 -0.7877,0.3528 0.2496,0.1142 0.5074,0.2106 0.7715,0.2882 0.2715,-0.0646 0.5346,-0.1484 0.7884,-0.2497 -0.2661,-0.1112 -0.5243,-0.242 -0.7722,-0.3913 z m 0.9943,0.2972 c -0.2838,-0.1089 -0.5592,-0.2404 -0.823,-0.3934 0.28,-0.1634 0.5454,-0.3495 0.7938,-0.5555 0.2623,0.1938 0.5389,0.3643 0.8264,0.5106 -0.252,0.1661 -0.5183,0.3129 -0.7972,0.4383 z m 0.0052,0.1837 c -0.2201,0.0956 -0.4475,0.1784 -0.6816,0.2472 0.2248,0.0515 0.4533,0.0893 0.6844,0.1131 0.1019,-0.0161 0.2039,-0.0351 0.306,-0.0569 0.129,-0.0276 0.2561,-0.0594 0.3811,-0.0951 -0.2341,-0.0554 -0.4645,-0.125 -0.6899,-0.2083 z m 1.019,0.1033 c -0.2706,-0.0493 -0.5371,-0.118 -0.7972,-0.2054 0.2607,-0.1267 0.5101,-0.2719 0.7468,-0.4337 0.2621,0.1225 0.5323,0.2253 0.8085,0.3079 -0.2417,0.1274 -0.4948,0.2384 -0.7581,0.3312 z m 0.0138,0.1753 c -0.1174,0.0404 -0.2368,0.0773 -0.358,0.1106 0.2401,-0.004 0.4817,-0.0234 0.7235,-0.0586 -0.1226,-0.0135 -0.2444,-0.0308 -0.3655,-0.052 z m 1.0197,-0.0832 c -0.2322,6e-4 -0.4633,-0.013 -0.692,-0.0405 0.2255,-0.0931 0.4432,-0.1993 0.652,-0.3177 0.2328,0.0592 0.4691,0.1042 0.7077,0.1346 -0.1207,0.0488 -0.2439,0.0938 -0.3693,0.1348 -0.0993,0.0324 -0.1987,0.062 -0.2984,0.0888 z m 0.6713,-0.042 c 0.2384,-0.0292 0.4767,-0.0739 0.7137,-0.1345 -0.1233,-5e-4 -0.2464,-0.0049 -0.3691,-0.0132 -0.1126,0.0526 -0.2275,0.1019 -0.3446,0.1477 z m 0.6576,-0.3052 c 0.2304,0.0033 0.4618,-0.0074 0.6927,-0.0326 0.0963,-0.037 0.1921,-0.0769 0.2874,-0.1196 0.1205,-0.0539 0.2383,-0.1116 0.3532,-0.1727 -0.2405,-0.0053 -0.4802,-0.0251 -0.7179,-0.0595 -0.1955,0.1396 -0.4008,0.2682 -0.6154,0.3844 z m 0.8113,-0.5307 c 0.2724,0.0311 0.5473,0.0426 0.8222,0.0342 0.2383,-0.1459 0.463,-0.3074 0.6731,-0.4826 -0.2872,-0.023 -0.573,-0.0671 -0.8546,-0.132 -0.198,0.2078 -0.4119,0.402 -0.6407,0.5804 z m 0.4503,-0.6277 c -0.2122,0.2151 -0.4424,0.4144 -0.6892,0.5954 -0.3002,-0.0472 -0.5965,-0.1181 -0.8862,-0.2125 0.2402,-0.2185 0.4613,-0.4559 0.6617,-0.7094 0.2965,0.1346 0.6022,0.2435 0.9137,0.3265 z m 0.3237,-0.0975 c 0.298,0.0635 0.6002,0.1029 0.9037,0.1182 0.2266,-0.2059 0.4348,-0.4283 0.6235,-0.6646 -0.3184,-0.0498 -0.6339,-0.1259 -0.9429,-0.2287 -0.1729,0.2732 -0.3681,0.5326 -0.5843,0.7751 z m 0.42,-0.8324 c -0.1795,0.2792 -0.3832,0.5433 -0.6093,0.7888 -0.3211,-0.0799 -0.6364,-0.188 -0.9418,-0.3241 0.2174,-0.2923 0.408,-0.6045 0.5689,-0.9323 0.3157,0.1883 0.6447,0.3441 0.9822,0.4676 z m 0.2557,-0.0917 c 0.318,0.1032 0.6428,0.1775 0.9705,0.2233 0.1993,-0.2679 0.3745,-0.5521 0.524,-0.8486 -0.3485,-0.0875 -0.692,-0.2078 -1.0256,-0.3619 -0.1259,0.3429 -0.283,0.6735 -0.4689,0.9872 z m 0.3154,-1.0607 c -0.1273,0.3497 -0.2879,0.6863 -0.4793,1.0047 -0.3444,-0.1235 -0.6798,-0.2816 -1.0011,-0.4742 0.1763,-0.3866 0.3119,-0.7935 0.4024,-1.2138 l 0.2206,0.1612 c 0.2753,0.2013 0.5623,0.3752 0.8574,0.5221 z m 0.21,-0.0877 c 0.3396,0.1579 0.6897,0.2798 1.0451,0.3665 0.1572,-0.3368 0.282,-0.6885 0.3724,-1.0497 -0.3088,-0.115 -0.6121,-0.2576 -0.9069,-0.4288 l -0.2366,-0.1375 c -0.0463,0.4276 -0.1389,0.8464 -0.274,1.2495 z m 0.1134,-1.3427 c -0.0413,0.4341 -0.1317,0.8596 -0.2671,1.2684 -0.2802,-0.1406 -0.5526,-0.3064 -0.8144,-0.4977 l -0.2833,-0.2073 c 0.0775,-0.4239 0.1094,-0.8605 0.0916,-1.3031 z m 0.1779,-0.0933 0.3039,0.1765 c 0.2801,0.1628 0.5682,0.2989 0.8614,0.4093 0.0922,-0.4208 0.1378,-0.8534 0.1338,-1.2895 l -1.3435,-0.6019 c 0.0638,0.4383 0.0773,0.8758 0.0444,1.3056 z m -0.2284,-1.388 c 0.0714,0.4337 0.092,0.8672 0.0654,1.2933 l -1.2999,-0.7551 c -0.0196,-0.264 -0.0572,-0.5297 -0.1134,-0.7959 l -0.0808,-0.3822 z m 0.1513,-0.1185 1.3715,0.6144 c -0.0179,-0.4267 -0.0834,-0.8556 -0.1995,-1.2793 l -1.4876,-0.4863 0.1201,0.3717 c 0.0835,0.2588 0.1484,0.5191 0.1955,0.7795 z m -0.5144,-1.2162 0.1579,0.4893 c 0.069,0.2134 0.1248,0.4278 0.1681,0.6425 l -1.435,-0.6428 -0.1933,-0.9147 c 0.0071,0.0023 0.0143,0.0046 0.0215,0.007 z m 0.1342,-0.1351 1.4942,0.4885 c -0.0653,-0.209 -0.1431,-0.4164 -0.2338,-0.6213 l -0.208,-0.4702 -1.317,-0.2816 c -0.0076,-0.0016 -0.0151,-0.0033 -0.0227,-0.0049 z m -0.4788,-0.9318 0.2799,0.8668 -1.1638,-0.3804 c -0.0382,-0.0126 -0.0764,-0.0252 -0.1145,-0.038 l -0.1596,-0.7555 c 0.3811,0.1157 0.7673,0.2182 1.158,0.3071 z m 0.131,-0.145 c 0.0394,0.0087 0.0788,0.0173 0.1184,0.0257 l 1.1967,0.2559 -0.3685,-0.8327 c -0.3979,-0.0473 -0.7927,-0.1086 -1.1838,-0.1835 z m -0.4272,-0.7721 0.2352,0.7283 c -0.3837,-0.0897 -0.7629,-0.1926 -1.1372,-0.3085 l -0.1409,-0.6668 c 0.3443,0.0931 0.6921,0.1756 1.0429,0.247 z m 0.1303,-0.1475 c 0.3843,0.0759 0.7723,0.1385 1.1634,0.1873 l -0.3097,-0.6996 c -0.3564,-0.0342 -0.711,-0.0796 -1.0632,-0.1361 z m -0.3974,-0.6796 0.207,0.6409 c -0.344,-0.0721 -0.6849,-0.1549 -1.0223,-0.2481 l -0.1229,-0.5818 c 0.3105,0.0718 0.6233,0.1348 0.9382,0.189 z m 0.1292,-0.1508 c 0.3453,0.0572 0.6931,0.1037 1.0428,0.1392 l -1.0049,-2.2709 c -0.4476,-1.0113 -0.5716,-2.129 -0.3681,-3.2015 -0.0083,0.0102 -0.0166,0.0203 -0.0249,0.0306 -0.4974,1.1607 -0.5604,2.468 -0.1697,3.6774 z m -0.0889,-5.6364 c -0.2945,1.1385 -0.1989,2.3504 0.2813,3.4355 l 1.0438,2.3587 c 0.39,0.035 0.7824,0.0564 1.1764,0.0639 l -1.7133,-2.9855 c -0.5212,-0.9084 -0.7636,-1.9423 -0.7102,-2.974 -0.0258,0.0339 -0.0519,0.0677 -0.078,0.1014 z m 0.267,-0.3531 c -0.1104,1.0846 0.119,2.1844 0.6678,3.1406 l 1.7634,3.0732 c 0.0406,3e-4 0.0811,5e-4 0.1217,5e-4 h 1.2227 l -2.6623,-3.6868 c -0.5729,-0.7933 -0.9147,-1.7214 -1.001,-2.6818 -0.0372,0.0517 -0.0746,0.1031 -0.1123,0.1543 z m 0.2665,-0.3722 c 0.051,1.0016 0.3887,1.9757 0.9837,2.7996 l 2.7345,3.7869 h 1.571 c -0.1263,-0.1784 -0.2639,-0.3514 -0.413,-0.5181 l -3.5132,-3.9255 c -0.6014,-0.6721 -1.0194,-1.4789 -1.2263,-2.3425 -0.045,0.0668 -0.0907,0.1334 -0.1367,0.1996 z m 0.2665,-0.3946 c 0.1858,0.8946 0.6039,1.7327 1.2222,2.4236 l 3.5132,3.9256 c 0.1808,0.2021 0.3453,0.4133 0.4935,0.6319 h 1.5014 c -0.3117,-0.6315 -0.7447,-1.2155 -1.297,-1.7159 l -3.9017,-3.5345 c -0.6066,-0.5496 -1.0743,-1.2256 -1.3764,-1.9721 -0.0511,0.0809 -0.1028,0.1613 -0.1552,0.2414 z m 0.0794,-0.4397 c -0.0409,0.0658 -0.0822,0.1314 -0.124,0.1967 -7e-4,-0.0046 -0.0014,-0.0092 -0.0022,-0.0137 0.039,-0.0708 0.0775,-0.1418 0.1155,-0.2131 0.0035,0.01 0.0071,0.02 0.0107,0.0301 z m 0.1874,0.019 c 0.2901,0.7685 0.7595,1.4645 1.378,2.0249 l 3.9017,3.5345 c 0.5907,0.5352 1.0488,1.1632 1.372,1.8424 h 0.3516 c 0.3233,0 0.6404,-0.0271 0.9491,-0.0789 -0.3565,-1.132 -1.0629,-2.1634 -2.091,-2.9148 l -4.2475,-3.105 c -0.5881,-0.4297 -1.0769,-0.9709 -1.4438,-1.586 -0.0558,0.0948 -0.1124,0.1891 -0.1701,0.2829 z m 0.073,-0.4526 c -0.048,0.0826 -0.0966,0.1647 -0.1459,0.2466 -0.0055,-0.017 -0.0111,-0.0339 -0.0165,-0.0508 0.0438,-0.0853 0.087,-0.1708 0.1295,-0.2566 0.0108,0.0203 0.0218,0.0406 0.0329,0.0608 z m 0.1948,0.0012 c 0.3602,0.6292 0.8504,1.1819 1.4455,1.6169 l 4.2475,3.1048 c 1.0648,0.7783 1.7944,1.8483 2.1593,3.0218 0.3671,-0.073 0.7217,-0.1813 1.0599,-0.3214 -0.3018,-1.586 -1.2612,-3.0359 -2.7602,-3.9066 l -4.5469,-2.6412 c -0.5454,-0.3169 -1.0254,-0.7245 -1.4229,-1.2006 -0.0595,0.1094 -0.1202,0.2181 -0.1822,0.3263 z m 0.067,-0.4693 c -0.0532,0.0987 -0.1074,0.197 -0.1626,0.2947 -0.0134,-0.0257 -0.0267,-0.0515 -0.0397,-0.0775 0.0475,-0.0993 0.0941,-0.199 0.1397,-0.2992 0.0206,0.0276 0.0414,0.0549 0.0626,0.082 z m 0.2019,-0.0185 c 0.3931,0.4834 0.8728,0.8964 1.4208,1.2147 l 4.5468,2.6412 c 1.5318,0.8897 2.5163,2.3668 2.8348,3.9853 0.3049,-0.1373 0.5957,-0.3008 0.8697,-0.4874 -0.1812,-2.0109 -1.4101,-3.8663 -3.3737,-4.7459 l -4.7964,-2.1485 c -0.4787,-0.2144 -0.9189,-0.4962 -1.3095,-0.8335 -0.0626,0.1255 -0.1268,0.2502 -0.1925,0.3741 z m 0.0615,-0.4911 c -0.0573,0.1157 -0.1159,0.2307 -0.176,0.3451 -0.0237,-0.0315 -0.0472,-0.0633 -0.0703,-0.0953 0.0503,-0.114 0.0994,-0.2286 0.1472,-0.3435 0.0326,0.0316 0.0657,0.0629 0.0991,0.0937 z m 0.2086,-0.0405 c 0.3863,0.3391 0.8238,0.6219 1.3008,0.8355 l 4.7963,2.1486 c 1.99,0.8914 3.247,2.7562 3.4638,4.789 0.2462,-0.1802 0.4774,-0.3797 0.6916,-0.5961 -0.0028,-2.4249 -1.5399,-4.679 -3.9564,-5.4689 l -4.9933,-1.6324 c -0.3881,-0.1268 -0.7571,-0.2967 -1.1014,-0.5046 -0.0651,0.1438 -0.1322,0.2869 -0.2014,0.4289 z m 0.0565,-0.5196 c -0.0606,0.1344 -0.123,0.268 -0.1871,0.4008 -0.0364,-0.0341 -0.0723,-0.0689 -0.1077,-0.1042 0.0525,-0.13 0.1033,-0.2608 0.1526,-0.3921 0.0469,0.0325 0.0943,0.0644 0.1422,0.0955 z m 0.2147,-0.0658 c 0.3384,0.2063 0.7017,0.3744 1.0839,0.4993 l 4.9933,1.6323 c 2.4296,0.7943 3.9958,3.0261 4.0706,5.4554 0.1852,-0.2035 0.356,-0.4204 0.5108,-0.6492 0.2319,-2.8443 -1.6674,-5.4869 -4.5155,-6.096 l -5.1355,-1.0983 c -0.2739,-0.0585 -0.5409,-0.1381 -0.799,-0.2375 -0.067,0.1658 -0.1365,0.3305 -0.2086,0.494 z m 0.0515,-0.5572 c -0.063,0.1562 -0.1284,0.3115 -0.1962,0.4658 -0.051,-0.0336 -0.1015,-0.0679 -0.1513,-0.1031 0.0539,-0.1487 0.1058,-0.2981 0.1557,-0.4481 0.0634,0.0297 0.1273,0.0582 0.1918,0.0854 z m 0.22,-0.0948 c 0.2492,0.0957 0.507,0.1725 0.7712,0.2291 l 5.1355,1.0982 c 2.8298,0.6051 4.7497,3.16 4.6662,5.9698 0.118,-0.1992 0.2244,-0.406 0.3184,-0.6197 0.0162,-0.1026 0.0298,-0.2063 0.0408,-0.3109 0.3304,-3.1629 -1.9502,-5.9965 -5.0939,-6.3289 l -5.2215,-0.5521 c -0.1357,-0.0144 -0.2703,-0.0339 -0.4037,-0.0584 -0.0676,0.1922 -0.1387,0.3833 -0.213,0.5729 z m 0.0454,-0.6065 c -0.0644,0.1822 -0.1319,0.3634 -0.2024,0.5432 -0.0679,-0.0286 -0.1351,-0.0587 -0.2016,-0.0902 0.0547,-0.1702 0.1067,-0.3413 0.1561,-0.5133 0.082,0.022 0.1646,0.0421 0.2479,0.0603 z m 0.2239,-0.1292 c 0.1207,0.0215 0.2424,0.0389 0.3651,0.0519 l 5.2215,0.5521 c 3.1232,0.3303 5.4191,3.0584 5.2704,6.1752 0.1632,-0.535 0.251,-1.1033 0.251,-1.6921 0,-3.1803 -2.5625,-5.7585 -5.7235,-5.7585 h -5.1712 c -0.0665,0.2253 -0.1376,0.4492 -0.2133,0.6714 z m 0.0371,-0.6724 c -0.0641,0.2147 -0.1323,0.4279 -0.2047,0.6396 -0.0867,-0.0185 -0.1728,-0.0391 -0.2581,-0.062 0.0543,-0.1965 0.1051,-0.3939 0.1524,-0.5922 0.103,0.0079 0.2065,0.0128 0.3104,0.0146 z m 0.0496,-0.1694 c 0.4339,-1.5115 0.6597,-3.0895 0.6597,-4.6909 V 7.0588404 c 0,-2.84597 -2.0519,-5.20973 -4.7486,-5.67532 1.8489,0.83771 3.2182,2.61405 3.4455,4.78932 l 0.6582,6.3007796 c 0.1975,1.89 0.0783,3.7805 -0.3357,5.5985 0.1065,0.0077 0.2135,0.012 0.3209,0.013 z m -0.5303,0.1389 c -0.0847,-0.0092 -0.169,-0.0205 -0.2529,-0.0337 -0.0312,0.1761 -0.0652,0.3518 -0.1019,0.5268 0.0694,0.0243 0.1394,0.0472 0.2099,0.0686 0.0516,-0.1864 0.0998,-0.3736 0.1449,-0.5617 z m -0.191,0.7255 c -0.067,-0.0203 -0.1336,-0.0419 -0.1998,-0.0648 -0.0339,0.1545 -0.0701,0.3085 -0.1084,0.4619 0.0533,0.0299 0.1072,0.0587 0.1615,0.0867 0.0512,-0.1605 0.1002,-0.3218 0.1467,-0.4838 z m -0.1999,0.6476 c -0.0511,-0.026 -0.1015,-0.0526 -0.1516,-0.0802 -0.0354,0.1359 -0.0724,0.2714 -0.1111,0.4065 0.0389,0.0313 0.0783,0.0621 0.1181,0.0924 0.05,-0.139 0.0982,-0.2786 0.1446,-0.4187 z m -0.2057,0.5853 c -0.0365,-0.0272 -0.0727,-0.0549 -0.1085,-0.083 -0.0355,0.1194 -0.0724,0.2383 -0.1105,0.3569 0.0263,0.0295 0.0529,0.0587 0.0799,0.0876 0.0478,-0.12 0.0941,-0.2405 0.1391,-0.3615 z m -0.209,0.5343 c -0.0239,-0.0248 -0.0475,-0.0498 -0.0709,-0.075 -0.0349,0.1042 -0.0708,0.2082 -0.1077,0.3119 0.0157,0.0244 0.0315,0.0488 0.0477,0.073 0.0446,-0.1028 0.0882,-0.2061 0.1309,-0.3099 z m -0.2116,0.4928 c -0.0133,-0.0189 -0.0263,-0.038 -0.0392,-0.0571 -0.0333,0.0898 -0.0672,0.1793 -0.102,0.2687 0.0072,0.0163 0.0144,0.0326 0.0217,0.0489 0.0406,-0.0865 0.0804,-0.1733 0.1195,-0.2605 z m -0.2139,0.4586 c -0.0047,-0.0096 -0.0093,-0.0194 -0.0139,-0.0291 -0.0304,0.075 -0.0613,0.1498 -0.0927,0.2244 0.0012,0.0046 0.0023,0.0091 0.0035,0.0136 0.0349,-0.0694 0.0693,-0.1391 0.1031,-0.2089 z m -0.0211,-0.4754 c 0.0274,-0.0727 0.0543,-0.1456 0.0807,-0.2185 -0.0057,-0.0093 -0.0114,-0.0185 -0.017,-0.0278 -0.0224,0.0777 -0.0454,0.1553 -0.0689,0.2327 0.0018,0.0045 0.0035,0.0091 0.0052,0.0136 z m 0.1271,-0.4722 c 0.0089,0.0156 0.0179,0.0311 0.027,0.0467 0.0313,-0.0902 0.0618,-0.1806 0.0915,-0.2713 -0.0151,-0.0176 -0.0301,-0.0353 -0.0451,-0.053 -0.0237,0.0927 -0.0481,0.1852 -0.0734,0.2776 z m -0.0595,-0.4427 c -0.0187,0.0752 -0.0378,0.1503 -0.0575,0.2254 -0.0021,-0.0042 -0.0042,-0.0086 -0.0063,-0.0128 0.0153,-0.0793 0.03,-0.1587 0.0441,-0.2382 0.0066,0.0085 0.0132,0.0171 0.0197,0.0256 z m 0.1841,-0.0402 c 0.0182,0.0228 0.0366,0.0455 0.0552,0.068 0.0337,-0.107 0.0664,-0.2143 0.098,-0.3219 -0.0264,-0.0222 -0.0526,-0.0447 -0.0786,-0.0674 -0.0238,0.1072 -0.0487,0.2144 -0.0746,0.3213 z m -0.0699,-0.4525 c -0.0201,0.0932 -0.041,0.1862 -0.0628,0.2791 -0.0105,-0.0143 -0.021,-0.0288 -0.0313,-0.0433 0.0154,-0.0945 0.0301,-0.189 0.044,-0.2836 0.0167,0.0161 0.0334,0.032 0.0501,0.0478 z m 0.1858,-0.0594 c 0.0293,0.0266 0.0589,0.0529 0.0888,0.0788 0.0351,-0.1245 0.0688,-0.2493 0.1009,-0.3745 -0.0391,-0.0233 -0.0781,-0.047 -0.1167,-0.0713 -0.023,0.1225 -0.0473,0.2449 -0.073,0.367 z m -0.0805,-0.4671 c -0.0203,0.1104 -0.0417,0.2206 -0.0641,0.3307 -0.0207,-0.0204 -0.0413,-0.0408 -0.0617,-0.0615 0.0147,-0.1092 0.0283,-0.2185 0.041,-0.3279 0.028,0.0198 0.0563,0.0395 0.0848,0.0587 z m 0.1864,-0.0804 c 0.042,0.0272 0.0844,0.0537 0.1272,0.0796 0.0353,-0.1434 0.0687,-0.2873 0.1003,-0.4315 -0.0535,-0.0205 -0.1066,-0.0417 -0.1593,-0.0639 -0.0211,0.1388 -0.0437,0.2774 -0.0682,0.4158 z m -0.0923,-0.4863 c -0.0191,0.1279 -0.0395,0.2555 -0.0614,0.383 -0.0325,-0.0226 -0.0645,-0.0455 -0.0964,-0.0689 0.0128,-0.1241 0.0243,-0.2483 0.0345,-0.3726 0.0408,0.0201 0.0819,0.0395 0.1233,0.0585 z m 0.1859,-0.1034 c 0.0562,0.0241 0.1128,0.0472 0.1698,0.0694 0.0343,-0.1651 0.0662,-0.3307 0.0957,-0.4967 -0.0689,-0.0132 -0.1375,-0.0276 -0.2057,-0.0435 -0.0178,0.1572 -0.0377,0.3141 -0.0598,0.4708 z m -0.1059,-0.512 c -0.0164,0.1468 -0.0346,0.2933 -0.0548,0.4397 -0.0452,-0.0213 -0.09,-0.0432 -0.1345,-0.0657 0.0099,-0.1401 0.0181,-0.2804 0.0246,-0.4207 0.0546,0.0164 0.1095,0.032 0.1647,0.0467 z m 0.0183,-0.1712 c 0.2349,-2.3175 -0.0063,-4.6812 -0.7356,-6.9394 l -1.9459,-6.0253496 c -0.4898,-1.51677 -1.546,-2.68919 -2.8564,-3.35727 -0.2904,0.09534 -0.5705,0.21341 -0.8385,0.35212 0.9291,0.60309 1.7,1.47573 2.1833,2.56772 l 2.5612,5.7877796 c 1.0617,2.3992 1.5488,4.9875 1.4561,7.5632 0.0582,0.0181 0.1169,0.0351 0.1758,0.0512 z m -0.3432,-0.1062 c 0.0839,-2.5339 -0.3988,-5.0789 -1.4432,-7.439 l -2.5612,-5.7877596 c -0.4831,-1.09156 -1.2623,-1.95745 -2.1999,-2.54458 -0.2904,0.16321 -0.5654,0.35115 -0.8218,0.56097 0.5791,0.45524 1.0828,1.02784 1.4728,1.70753 l 3.1484,5.48665 c 1.4059,2.4499896 2.1716,5.1882896 2.2642,7.9650896 0.0467,0.0177 0.0936,0.0347 0.1407,0.0511 z m -0.0067,0.1775 c -0.0432,-0.0145 -0.0861,-0.0296 -0.1288,-0.0452 0.0029,0.1246 0.0043,0.2494 0.0044,0.3741 0.0341,0.0199 0.0684,0.0393 0.103,0.0585 0.0086,-0.1291 0.0157,-0.2582 0.0214,-0.3874 z m -0.0347,0.5734 c -0.0304,-0.0161 -0.0606,-0.0326 -0.0906,-0.0494 -0.0012,0.1101 -0.0034,0.2202 -0.0066,0.3303 0.0225,0.0184 0.045,0.0367 0.0678,0.0547 0.0109,-0.1118 0.0207,-0.2237 0.0294,-0.3356 z m -0.05,0.5346 c -0.0184,-0.0139 -0.0367,-0.028 -0.0548,-0.0422 -0.0041,0.0957 -0.0089,0.1914 -0.0145,0.2871 0.0118,0.0133 0.0238,0.0266 0.0357,0.0398 0.012,-0.0947 0.0232,-0.1897 0.0336,-0.2847 z m -0.0626,0.5025 c -0.0073,-0.0077 -0.0147,-0.0155 -0.0221,-0.0234 -0.0058,0.0805 -0.0123,0.161 -0.0192,0.2413 0.0025,0.0041 0.0051,0.008 0.0077,0.0121 0.0118,-0.0767 0.023,-0.1533 0.0336,-0.23 z m -0.166,-0.4456 c 0.0037,-0.0777 0.0069,-0.1552 0.0095,-0.2328 -0.0082,-0.007 -0.0164,-0.0141 -0.0246,-0.021 0.0025,0.0807 0.0045,0.1616 0.006,0.2424 0.003,0.0039 0.006,0.0076 0.0091,0.0114 z m -0.0242,-0.4885 c 0.0132,0.0121 0.0266,0.0241 0.0399,0.0361 0.0021,-0.0955 0.0034,-0.1911 0.0039,-0.2866 -0.0198,-0.012 -0.0396,-0.0241 -0.0592,-0.0364 0.006,0.0956 0.0111,0.1912 0.0154,0.2869 z m -0.1925,-0.4026 c 0.0053,0.0774 0.0102,0.1548 0.0145,0.2323 -0.0034,-0.0034 -0.0068,-0.0069 -0.0102,-0.0103 -0.0098,-0.0802 -0.0202,-0.1603 -0.0311,-0.2404 0.0089,0.0062 0.0178,0.0123 0.0268,0.0184 z m 0.1627,-0.0955 c 0.0243,0.0161 0.0488,0.0319 0.0733,0.0475 -7e-4,-0.1124 -0.0027,-0.2247 -0.0057,-0.3368 -0.0318,-0.013 -0.0636,-0.0263 -0.0953,-0.0398 0.0103,0.1096 0.0195,0.2193 0.0277,0.3291 z m -0.047,-0.5232 c 0.0359,0.0162 0.0722,0.0319 0.1086,0.0473 -0.1028,-2.7234 -0.8597,-5.4073 -2.2389,-7.8109396 l -3.1485,-5.4867 c -0.3852,-0.67128 -0.8845,-1.23501 -1.4589,-1.68071 -0.28,0.24343 -0.5361,0.51371 -0.7647,0.80684 0.2353,0.23124 0.4545,0.48549 0.6543,0.76225 l 3.7013,5.12548 c 1.7633,2.4416796 2.8358,5.2863796 3.1468,8.2364796 z M 18.59874,3.3898604 c 0.2251,-0.28711 0.476,-0.55277 0.7493,-0.79343 -0.2707,-0.19711 -0.5568,-0.36888 -0.8544,-0.51427 -0.272,0.1929 -0.5259,0.40875 -0.7591,0.64445 0.3046,0.19154 0.5942,0.41287 0.8642,0.66325 z m -0.1033,0.13573 c -0.2744,-0.25587 -0.5699,-0.48072 -0.8812,-0.67373 -0.2531,0.27153 -0.4798,0.56726 -0.6766,0.88282 0.2579,0.20516 0.5022,0.43489 0.7297,0.68903 l 0.1838,0.20539 c 0.1755,-0.39235 0.3921,-0.76206 0.6443,-1.10351 z m 0.1588,-1.55329 c 0.2875,0.14636 0.5641,0.3169 0.8264,0.51073 0.2484,-0.20612 0.5138,-0.39217 0.7939,-0.55568 -0.2639,-0.15299 -0.5392,-0.2845 -0.8231,-0.39341 -0.2788,0.12535 -0.5452,0.27224 -0.7972,0.43836 z m 1.0193,-0.53256 c 0.2662,0.11122 0.5243,0.242 0.7722,0.39144 0.2522,-0.13613 0.5154,-0.25434 0.7878,-0.35291 -0.2496,-0.1143 -0.5075,-0.21074 -0.7716,-0.28826 -0.2714,0.06467 -0.5346,0.14845 -0.7884,0.24973 z m 5.063,14.8450796 c -1.4624,-2.917 -3.7463,-5.369 -6.601,-7.0272496 l -0.6312,-0.36661 v 0.69427 c 3.0297,1.4734896 5.5399,3.8121896 7.2322,6.6995896 z m -0.4883,-0.4727 c -1.6489,-2.5788 -3.9749,-4.6741 -6.7439,-6.0376196 V 10.37042 c 2.682,1.1998 5.0042,3.0776 6.7439,5.4417 z m -6.9131,-5.5163 V 9.6923804 c -0.127,-0.06077 -0.2548,-0.11998 -0.3835,-0.17763 l -0.6657,-0.29815 0.0721,0.69052 c 0.3305,0.1196996 0.6563,0.2493996 0.9771,0.3886996 z m -0.9574,-0.2004 c 0.3239,0.119 0.6431,0.2478 0.9574,0.386 v 0.5268 c -0.2949,-0.115 -0.5936,-0.2219 -0.8954,-0.3204 z m -0.1963,-0.2511696 -0.074,-0.70766 -1.2281,-0.5501 0.188,0.88977 0.7855,0.25681 c 0.1101,0.03602 0.2195,0.07305 0.3286,0.11118 z m -1.0735,-0.1757 0.6927,0.22638 c 0.1342,0.0439 0.2676,0.08939 0.4004,0.1365896 l 0.0627,0.5999 c -0.3336,-0.1048 -0.6712,-0.1996 -1.0123,-0.2838 z m -0.2264,-0.25297 -0.1933,-0.9147 -1.4358,-0.64313 c 0.0432,0.21447 0.0991,0.42866 0.1679,0.64176 l 0.1583,0.49007 z m -1.2383,-0.22583 1.2789,0.41803 0.147,0.6958396 c -0.1123,-0.0264 -0.225,-0.0518 -0.3381,-0.0759 l -0.8084,-0.1729 z m -0.2635,-0.26516 -0.1203,-0.37248 c -0.0835,-0.25846 -0.1483,-0.51857 -0.1953,-0.77878 l -1.3718,-0.61448 c 0.0179,0.42669 0.0835,0.85563 0.1995,1.27934 z m -1.4298,-0.28843 1.4944,0.48852 0.2872,0.8892396 -1.3397,-0.2865296 -0.2083,-0.47064 c -0.0906,-0.20467 -0.1683,-0.41189 -0.2336,-0.62059 z m -0.2496,-0.26057 c -0.109,-0.42912 -0.168,-0.86283 -0.18,-1.29378 l -0.3213,-0.14392 c -0.2953,-0.13229 -0.5958,-0.23738 -0.8987,-0.31635 -0.0478,0.42827 -0.0483,0.86327 10e-4,1.2967 z m -1.3746,-0.27038 1.428,0.46679 c 0.0738,0.25388 0.1654,0.50566 0.2752,0.75404 l 0.1584,0.35763 -1.5303,-0.32729 c -0.1595,-0.40915 -0.2693,-0.82883 -0.3313,-1.25117 z m -0.2008,-0.24462 c -0.043,-0.42802 -0.0391,-0.85705 0.0097,-1.27959 -0.3649592,-0.08351 -0.7326292,-0.12958 -1.0982892,-0.14007 -0.08417,0.36238 -0.13355,0.73245 -0.1473,1.10465 0.32558,0.04793 0.65161,0.124 0.9751,0.22977 z m -1.2396292,-0.14344 c 0.30937,0.04665 0.61909,0.11952 0.92655,0.22006 l 0.3347792,0.10944 c 0.0567,0.42729 0.1604,0.85237 0.3134,1.26766 l -1.4390892,-0.30778 c -0.09401,-0.42582 -0.13874,-0.85852 -0.13564,-1.28938 z m -0.1647,-0.19385 c 0.01439,-0.36528 0.06222,-0.7285 0.14265,-1.08468 -0.33423,6.5e-4 -0.66619,0.03092 -0.99195,0.08937 -0.10731,0.31677 -0.18656,0.64141 -0.23767,0.96993 0.35847,-0.02521 0.72213,-0.01751 1.08697,0.02538 z m -1.11111,0.14711 c 0.36475,-0.02805 0.73524,-0.0209 1.10683,0.02383 -0.00465,0.42527 0.03607,0.85238 0.12325,1.27352 l -0.26782,-0.05728 c -0.33287,-0.07121 -0.6651,-0.11255 -0.99396,-0.12593 -0.02505,-0.37166 -0.01439,-0.74487 0.0317,-1.11414 z m -0.14922,-0.15765 c 0.04747,-0.32034 0.12098,-0.63723 0.22037,-0.9472 -0.2978,0.06398 -0.58995,0.15163 -0.87332,0.26186 -0.12384,0.2808 -0.22407,0.56922 -0.30085,0.86214 0.31103,-0.08478 0.62995,-0.14426 0.9538,-0.1768 z m -1.00012,0.36662 c 0.31788,-0.0923 0.64476,-0.15728 0.97699,-0.19312 -0.043,0.36277 -0.05284,0.72902 -0.02925,1.0938 -0.36712,-0.00422 -0.72955,0.0263 -1.08332,0.08908 0.01663,-0.33215 0.06176,-0.66338 0.13558,-0.98976 z m -0.1417,1.16391 c -0.0075,0.37202 0.02067,0.74431 0.08419,1.1113296 0.32852,-0.0213 0.66328,-0.0151 1.0017,0.0207 l 0.27193,0.0288 c -0.13046,-0.4096396 -0.21527,-0.8301496 -0.25489,-1.2535896 -0.37414,-0.00531 -0.7432,0.02649 -1.10293,0.09276 z m 1.27337,-0.08781 c 0.04172,0.42894 0.13118,0.85449 0.26892,1.2681396 l 1.46301,0.1547 c -0.19522,-0.3969996 -0.34262,-0.8088496 -0.44328,-1.2277996 l -0.34389,-0.0736 c -0.31629,-0.06764 -0.63203,-0.10751 -0.94476,-0.12144 z m 1.47276,0.23436 c 0.10567,0.41354 0.25835,0.8194796 0.45949,1.2096796 l 1.5561592,0.1645 -0.1946,-0.339 c -0.1351,-0.2353996 -0.2523,-0.4762796 -0.352,-0.7209896 z m 1.6707492,0.35736 c 0.0866,0.20072 0.1854,0.39862 0.2968,0.5927196 l 0.256,0.4461 1.3622,0.1441 -0.3781,-0.8542496 z m 1.7416,0.37239 0.3676,0.8310296 0.8223,0.0869 c 0.1147,0.0122 0.2292,0.0255 0.3436,0.0399 l -0.2186,-0.6765 z m 1.5061,0.3220296 0.2131,0.6604 c 0.3482,0.0479 0.6938,0.1067 1.0366,0.1759 l -0.1247,-0.5902 c -0.1368,-0.0329 -0.2742,-0.064 -0.4121,-0.0936 z m 1.3075,0.2911 0.123,0.5827 c 0.3107,0.0662 0.6188,0.1412 0.9241,0.2245 l -0.0547,-0.524 c -0.3271,-0.1043 -0.6579,-0.1989 -0.9924,-0.2832 z m 1.1685,0.3405 0.0538,0.5156 c 0.2766,0.0787 0.5508,0.1644 0.8223,0.2569 v -0.4548 c -0.2886,-0.1138 -0.5807,-0.2198 -0.8761,-0.3177 z m 1.0453,0.3855 v 0.4456 c 2.0676,0.7289 3.9796,1.8553 5.6264,3.3195 -1.6013,-1.624 -3.5156,-2.9058 -5.6264,-3.7651 z m 5.0135,3.4645 c -1.4973,-1.2297 -3.1939,-2.1898 -5.0135,-2.8384 v 0.378 c 1.7901,0.535 3.4851,1.3651 5.0135,2.4604 z m -5.1827,-2.51 v -0.3877 c -0.2652,-0.0914 -0.5331,-0.1762 -0.8032,-0.2542 l 0.0463,0.4431 c 0.254,0.0604 0.5063,0.1268 0.7569,0.1988 z m -0.7381,-0.0193 c 0.2477,0.0598 0.4937,0.1253 0.7381,0.1964 v 1.0039 c 0,1.1527 -0.3791,2.266 -1.0677,3.1713 0.4174,-0.8865 0.5899,-1.8787 0.4864,-2.8703 z m -0.1932,-0.22 -0.0472,-0.4523 c -0.2988,-0.0829 -0.6004,-0.1575 -0.9045,-0.2238 l 0.1071,0.507 c 0.2833,0.0492 0.5649,0.1056 0.8446,0.1691 z m -0.8067,0.0103 c 0.2768,0.0493 0.552,0.1054 0.8254,0.1685 l 0.163,1.5603 c 0.1198,1.1465 -0.1417,2.2938 -0.7328,3.2666 0.3232,-0.9256 0.3919,-1.9306 0.1858,-2.9061 z m -0.2172,-0.2096 -0.1088,-0.5152 c -0.3363,-0.0694 -0.6753,-0.1286 -1.0168,-0.1774 l 0.183,0.5665 c 0.3159,0.0333 0.6302,0.0754 0.9426,0.1261 z m -0.8853,0.0513 c 0.3093,0.0339 0.6171,0.0765 0.923,0.1275 l 0.4554,2.1555 c 0.2372,1.1225 0.0987,2.2856 -0.3829,3.3119 -0.0015,0.0016 -0.003,0.0034 -0.0047,0.005 0.223,-0.9519 0.1861,-1.9554 -0.1192,-2.9009 z m -0.2411,-0.1957 -0.1853,-0.5738 c -0.1394,-0.0182 -0.279,-0.0348 -0.4191,-0.0496 l -0.7251,-0.0767 0.2807,0.6343 c 0.3511,0.0111 0.7008,0.0331 1.0488,0.0658 z m -0.9724,0.107 c 0.3447,0.0126 0.6879,0.0359 1.0293,0.0695 l 0.8949,2.7708 c 0.3288,1.0179 0.3361,2.1053 0.0337,3.1162 -0.0189,0.0209 -0.0376,0.0419 -0.0564,0.063 0.0886,-0.919 -0.0581,-1.854 -0.4379,-2.7122 z m -0.2638,-0.1777 -0.2876,-0.6499 -1.3371,-0.1414 0.4521,0.7877 h 0.8271 c 0.1153,0 0.2305,0.0012 0.3455,0.0036 z m -1.0749,0.1666 h 0.7294 c 0.1407,0 0.2813,0.0018 0.4217,0.0054 l 1.4967,3.3822 c 0.4011,0.9066 0.5338,1.9015 0.395,2.8683 -0.0309,0.0359 -0.0616,0.0718 -0.0921,0.1079 -0.0365,-0.859 -0.2773,-1.705 -0.7125,-2.4633 z m -0.2931,-0.1702 -0.4646,-0.8097 -1.5629992,-0.1653 c 0.10703,0.1906 0.22592,0.3771 0.3568996,0.5584 l 0.3007996,0.4166 z m -1.2469,0.1702 h 1.3447 l 2.287,3.9855 c 0.4535,0.7903 0.6889,1.6788 0.6947,2.5756 -0.0399,0.0486 -0.0796,0.0975 -0.1189,0.1464 -0.1454,-0.7759 -0.4599,-1.5178 -0.93,-2.1688 z m -0.3321,-0.1702 -0.2285092,-0.3165 c -0.15888,-0.22 -0.30053,-0.4473 -0.42515,-0.6802 l -1.49353,-0.1579 c 0.14803,0.4002 0.34216,0.7878 0.58265,1.1546 z m -1.4485692,0.1702 H 10.19324 l 3.3498,4.6387 c 0.4848,0.6714 0.7988,1.4425 0.926,2.247 -0.0471,0.0604 -0.094,0.1212 -0.1402,0.1821 -0.2321,-0.674 -0.597,-1.3014 -1.0806,-1.8418 l -4.2134392,-4.7081 c -0.14912,-0.1666 -0.28677,-0.3396 -0.41303,-0.5179 z m -0.31738,-0.1702 c -0.2354,-0.3742 -0.42479,-0.7683 -0.56845,-1.1744 l -0.34926,-0.0369 c -0.32166,-0.034 -0.63982,-0.0405 -0.95227,-0.0215 0.08598,0.4222 0.21918,0.836 0.39912,1.2328 z m -1.39029,0.1702 h 1.50142 c 0.14822,0.2186 0.31274,0.4297 0.49357,0.6318 l 4.2134492,4.7082 c 0.4943,0.5523 0.8606,1.1986 1.0826,1.8927 -0.0534,0.0722 -0.1063,0.1448 -0.1585,0.2178 -0.2918,-0.558 -0.6814,-1.0654 -1.156,-1.4954 l -4.6795392,-4.2393 c -0.55241,-0.5003 -0.9853,-1.0843 -1.297,-1.7158 z m 7.2184392,7.6221 c 0.0081,0.017 0.0162,0.034 0.0241,0.0511 0.0397,-0.0654 0.0798,-0.1306 0.1203,-0.1956 -0.0036,-0.0137 -0.0074,-0.0274 -0.0111,-0.0411 -0.0449,0.0616 -0.0893,0.1235 -0.1333,0.1856 z m 0.2599,-0.357 c 0.0021,0.0068 0.0041,0.0137 0.0062,0.0206 0.034,-0.0529 0.0683,-0.1056 0.1029,-0.1581 -2e-4,-0.0019 -4e-4,-0.0039 -7e-4,-0.0059 -0.0363,0.0476 -0.0725,0.0954 -0.1084,0.1434 z m -0.0593,0.4439 c -0.0311,0.0511 -0.062,0.1023 -0.0927,0.1536 0.0028,0.0066 0.0055,0.0131 0.0083,0.0197 0.0282,-0.056 0.0568,-0.1119 0.0857,-0.1676 -5e-4,-0.0019 -8e-4,-0.0037 -0.0013,-0.0057 z m -0.0432,2.4244 c -0.0079,0.0595 -0.0154,0.1192 -0.0227,0.1788 0.0051,0.0047 0.0102,0.0095 0.0152,0.0144 0.0032,-0.063 0.0067,-0.126 0.0106,-0.1889 -10e-4,-0.0015 -0.002,-0.0029 -0.0031,-0.0043 z m -0.0174,0.4206 c -0.0099,-0.0099 -0.0198,-0.0198 -0.0297,-0.0296 -0.0083,0.0758 -0.0161,0.1518 -0.0233,0.2277 0.0153,0.0106 0.0306,0.0212 0.0459,0.0319 0.0019,-0.0767 0.0041,-0.1533 0.0071,-0.23 z m 0.1597,0.3518 c 10e-4,-0.0599 0.0023,-0.1198 0.004,-0.1797 0.0011,0.0013 0.0023,0.0025 0.0035,0.0038 0.0027,0.0629 0.0057,0.1258 0.009,0.1886 -0.0054,-0.0043 -0.011,-0.0085 -0.0165,-0.0127 z m -0.1705,0.0846 c -0.0198,-0.0145 -0.0396,-0.0289 -0.0597,-0.0432 -0.0076,0.0916 -0.0144,0.1832 -0.0206,0.2747 0.0265,0.0127 0.053,0.0255 0.0793,0.0386 -4e-4,-0.09 0,-0.18 10e-4,-0.2701 z m 0.1687,0.3581 c -7e-4,-0.0763 -9e-4,-0.1527 -5e-4,-0.2291 0.0109,0.0087 0.0217,0.0175 0.0326,0.0263 0.0051,0.0766 0.0107,0.1531 0.0168,0.2297 -0.0162,-0.0091 -0.0325,-0.018 -0.0489,-0.0269 z m -0.1679,0.1035 c -0.0307,-0.0159 -0.0615,-0.0315 -0.0925,-0.0467 -0.006,0.1075 -0.0111,0.215 -0.0151,0.3226 0.0385,0.0111 0.0768,0.0227 0.1151,0.0348 -0.0035,-0.1036 -0.0059,-0.2072 -0.0075,-0.3107 z m 0.1788,0.3677 c -0.0034,-0.0917 -0.0061,-0.1835 -0.008,-0.2753 0.0214,0.0121 0.0427,0.0243 0.0639,0.0366 0.0083,0.0897 0.0173,0.1793 0.027,0.2687 -0.0276,-0.0102 -0.0552,-0.0202 -0.0829,-0.03 z m -0.1644,0.1238 c -0.0423,-0.0138 -0.0849,-0.0272 -0.1277,-0.0399 -0.0838,3.0973 0.6799,6.1855 2.2449,8.9128 l 2.6251,4.5746 c 0.3854,0.6716 0.8849,1.2355 1.4596,1.6813 0.2798,-0.2433 0.5359,-0.5134 0.7644,-0.8064 -0.2357,-0.2314 -0.4552,-0.486 -0.6554,-0.7632 l -3.086,-4.2735 c -1.9715,-2.7301 -3.0795,-5.964 -3.2249,-9.2857 z m 7.0696,14.186 c -0.2234,-0.221 -0.4316,-0.4634 -0.6217,-0.7267 l -3.0861,-4.2736 c -1.9386,-2.6844 -3.0338,-5.861 -3.1897,-9.1259 0.0324,0.0119 0.0647,0.0241 0.0968,0.0366 0.4154,3.4688 1.8826,6.7519 4.2375,9.3833 l 3.2068,3.5832 c -0.1728,0.4 -0.3894,0.7764 -0.6436,1.1231 z m 0.02,0.2541 c -0.2251,0.2869 -0.4759,0.5524 -0.749,0.7929 0.2708,0.1971 0.5569,0.3688 0.8545,0.5141 0.2718,-0.1927 0.5256,-0.4084 0.7589,-0.6439 -0.3047,-0.1915 -0.5944,-0.4128 -0.8644,-0.6631 z m 0.9847,0.5378 c -0.3114,-0.193 -0.6068,-0.4177 -0.8814,-0.6735 0.2523,-0.3412 0.4688,-0.7107 0.6444,-1.1028 l 0.1822,0.2037 c 0.2279,0.2546 0.4727,0.4848 0.7314,0.6903 -0.1969,0.3154 -0.4235,0.6109 -0.6766,0.8823 z m 0.0286,0.2158 c -0.2256,0.231 -0.4702,0.4438 -0.7316,0.6358 0.2783,0.1244 0.5658,0.2261 0.8594,0.3046 0.2643,-0.1539 0.5139,-0.328 0.7472,-0.5196 -0.3012,-0.1152 -0.594,-0.2557 -0.875,-0.4208 z m 1.0234,0.2947 c -0.3111,-0.1133 -0.6135,-0.254 -0.9032,-0.4215 0.2466,-0.2679 0.4686,-0.5583 0.6626,-0.8673 0.2945,0.2205 0.6055,0.41 0.9284,0.5684 -0.2075,0.2588 -0.4375,0.5 -0.6878,0.7204 z m 0.7944,-0.8576 c 0.2235,-0.2965 0.4183,-0.6144 0.5812,-0.9487 -0.2785,-0.1772 -0.5459,-0.3803 -0.799,-0.6096 l -0.2023,-0.1833 c -0.1338,0.4084 -0.3108,0.7986 -0.5263,1.1645 0.2996,0.2256 0.6168,0.418 0.9464,0.5771 z m -1.0814,-0.6818 c 0.2169,-0.3716 0.3932,-0.7687 0.5235,-1.1847 l -1.093,-0.9901 c -0.074,0.4366 -0.1955,0.857 -0.3588,1.2554 l 0.2342,0.2617 c 0.2166,0.2421 0.449,0.4613 0.6941,0.6577 z m -1.0543,-1.0601 c 0.1562,-0.3971 0.2698,-0.8157 0.3351,-1.2503 l -2.3189,-2.1007 c -2.7306,-2.4737 -4.5726,-5.7554 -5.2852,-9.3377 -0.0224,-0.0101 -0.0449,-0.0201 -0.0675,-0.0299 0.4262,3.3994 1.8735,6.6142 4.1836,9.1955 z m -7.3597,-12.913 c 0.0172,0.0071 0.0345,0.0143 0.0516,0.0216 -0.014,-0.0754 -0.0276,-0.1509 -0.0406,-0.2265 -0.0118,-0.0077 -0.0236,-0.0153 -0.0355,-0.0229 0.0077,0.076 0.0158,0.1519 0.0245,0.2278 z m -0.0444,-0.4405 c 0.0061,0.0037 0.0121,0.0074 0.0181,0.011 -0.0098,-0.062 -0.0194,-0.1243 -0.0286,-0.1866 -0.0013,-0.0012 -0.0028,-0.0025 -0.0042,-0.0037 0.0046,0.0598 0.0095,0.1196 0.0147,0.1793 z m 0.2511,0.3696 c 0.0107,0.059 0.0218,0.1179 0.0332,0.1768 0.0065,0.003 0.0129,0.0061 0.0194,0.0091 -0.0163,-0.0606 -0.0322,-0.1215 -0.0478,-0.1824 -0.0017,-0.0011 -0.0033,-0.0023 -0.0048,-0.0035 z m 0.1129,0.4053 c -0.0126,-0.0065 -0.0251,-0.0129 -0.0378,-0.0192 0.7231,3.4981 2.5356,6.7 5.2073,9.1203 l 2.2328,2.0227 c 0.0248,-0.2179 0.0376,-0.4394 0.0376,-0.664 v -0.5141 l -1.0896,-0.7964 c -3.0909,-2.2595 -5.3172,-5.489 -6.3503,-9.1493 z m 7.4399,9.7353 -0.9901,-0.7238 c -3.0152,-2.2041 -5.1994,-5.3405 -6.2413,-8.8988 0.0018,0.001 0.0035,0.002 0.0052,0.003 1.3469,3.6331 3.89,6.7118 7.2262,8.708 z m 0.1692,0.3341 v 0.3904 c 0,0.2723 -0.0183,0.5402 -0.0536,0.8028 l 1.1157,1.0107 c 0.1141,-0.4113 0.1836,-0.8396 0.2035,-1.2788 z m 1.2712,0.7188 -1.2712,-0.9292 v -0.9354 c 0.0066,0.0039 0.0133,0.0078 0.02,0.0117 l 1.1662,0.6774 0.0534,0.5115 c 0.0233,0.2232 0.0337,0.4448 0.0316,0.664 z m 0.1573,0.3254 c -0.0282,0.442 -0.1054,0.8729 -0.2265,1.2865 l 0.2601,0.2356 c 0.2405,0.2178 0.4944,0.4115 0.7586,0.581 0.1772,-0.3924 0.3112,-0.8059 0.3976,-1.2334 z m 1.224,0.6844 -1.2145,-0.8878 c 0.0078,-0.2648 -0.0018,-0.5331 -0.0301,-0.8039 l -0.0406,-0.3884 1.3546,0.7868 c 0.0259,0.4389 0.0013,0.8722 -0.0694,1.2933 z m 0.0536,-1.499 c -0.0207,-0.2182 -0.054,-0.4374 -0.1004,-0.6568 l -0.1063,-0.5032 -1.2302,-0.5511 c -0.007,-0.0031 -0.0139,-0.0062 -0.0209,-0.0093 l 0.0972,0.9301 z m -1.5417,-0.8956 -0.0948,-0.9064 c -0.3639,-0.1688 -0.7207,-0.3498 -1.0696,-0.5427 v 0.7723 c 0.0348,0.0205 0.0696,0.0409 0.1045,0.0613 z m -1.3336,-0.7781 v -0.7658 c -2.9698,-1.6861 -5.3672,-4.235 -6.8769,-7.3122 1.3625,3.352 3.7672,6.192 6.8769,8.078 z m -6.4589,-7.6334 c 1.4879,2.7856 3.7254,5.0992 6.4589,6.6719 v -0.6737 c -2.6321,-1.3903 -4.8631,-3.4568 -6.4589,-5.9982 z m 6.6281,6.0863 v 0.6816 c 0.3422,0.1917 0.6921,0.3719 1.049,0.5399 l -0.0795,-0.7615 c -0.3286,-0.1434 -0.6519,-0.2968 -0.9695,-0.46 z m 0.9492,0.2653 c -0.3218,-0.1425 -0.6382,-0.2948 -0.9492,-0.4567 v -0.5948 c 0.289,0.1353 0.5822,0.2624 0.8791,0.3813 z m 0.1984,0.2711 0.0803,0.768 c 0.0366,0.0168 0.0733,0.0334 0.1101,0.0499 l 1.1179,0.5008 -0.1883,-0.8916 c -0.3794,-0.1295 -0.7529,-0.272 -1.12,-0.4271 z m 1.079,0.2331 c -0.3724,-0.1296 -0.7389,-0.2719 -1.0992,-0.4265 l -0.0709,-0.6781 c 0.3328,0.129 0.6702,0.2475 1.0118,0.3554 z m -0.1987,-0.9406 -0.1392,-0.6592 c -0.3077,-0.087 -0.6124,-0.1826 -0.9138,-0.2866 l 0.0617,0.5915 c 0.3261,0.1283 0.6566,0.2464 0.9913,0.3543 z m -1.1687,-0.4253 -0.061,-0.5826 c -0.2688,-0.0961 -0.535,-0.1989 -0.7982,-0.3085 v 0.5134 c 0.2824,0.1338 0.5689,0.2597 0.8592,0.3777 z m -1.0284,-0.4589 v -0.5036 c -2.0551,-0.8807 -3.9283,-2.1656 -5.503,-3.7913 1.5202,1.8077 3.3971,3.2687 5.503,4.2949 z m -4.9721,-4.0049 c 1.4529,1.4002 3.1386,2.521 4.9721,3.3162 v -0.1566 c 0,-0.0899 0.0023,-0.1796 0.0066,-0.2689 -1.8009,-0.6682 -3.4865,-1.6426 -4.9787,-2.8907 z m 5.1454,2.9514 c -0.0028,0.0692 -0.0041,0.1386 -0.0041,0.2082 v 0.2288 c 0.2568,0.1081 0.5164,0.2097 0.7787,0.305 l -0.0523,-0.5008 c -0.2426,-0.075 -0.4835,-0.1554 -0.7223,-0.2412 z m 0.703,0.057 c -0.2327,-0.073 -0.4638,-0.1511 -0.693,-0.2341 0.0853,-1.1604 0.5542,-2.2606 1.3336,-3.1235 -0.5397,0.9666 -0.7736,2.0847 -0.6569,3.202 z m 0.1949,0.2374 0.0534,0.5106 c 0.2947,0.1033 0.5927,0.1984 0.8935,0.2852 l -0.1211,-0.573 c -0.2773,-0.0673 -0.5527,-0.1417 -0.8258,-0.2228 z m 0.7868,0.038 c -0.2706,-0.067 -0.5394,-0.1409 -0.8059,-0.2213 l -0.0238,-0.2276 c -0.1351,-1.293 0.2147,-2.5871 0.9755,-3.6307 -0.4362,1.018 -0.5526,2.1543 -0.3204,3.253 z m 0.1822,0.0441 c 0.3038,0.0717 0.6099,0.1349 0.918,0.1897 l -0.4974,-1.5403 c -0.3449,-1.0679 -0.3474,-2.2099 -0.0196,-3.2679 -0.6477,1.1177 -0.861,2.441 -0.5924,3.7124 z m -0.137,-12.8343 c -1.9476,-1.8991 -4.3054,-3.279 -6.8606,-4.0511 v 0.9538 c 0,1.429 -0.5643,2.7993 -1.5685,3.8097 -0.0241,0.0243 -0.0481,0.0486 -0.0721,0.073 -0.0856,0.1275 -0.177,0.2516 -0.274,0.3721 -0.0216,0.0268 -0.0431,0.0537 -0.0645,0.0806 -0.0719,0.1356 -0.1497,0.2685 -0.2335,0.3984 -0.019,0.0294 -0.0379,0.0587 -0.0566,0.0882 -0.0573,0.142 -0.1208,0.282 -0.1905,0.4195 -0.0156,0.0308 -0.0311,0.0615 -0.0465,0.0924 -0.0422,0.1477 -0.091,0.2939 -0.1461,0.4385 -0.0123,0.0323 -0.0246,0.0646 -0.0367,0.097 -0.0267,0.1512 -0.0599,0.3018 -0.0997,0.4513 -0.0091,0.0337 -0.0179,0.0674 -0.0266,0.1011 -0.0109,0.1529 -0.0283,0.3059 -0.0523,0.4585 -0.0055,0.0344 -0.0108,0.0688 -0.016,0.1033 0.005,0.1532 0.0037,0.3071 -0.0044,0.4614 -0.0018,0.0343 -0.0034,0.0687 -0.0051,0.1031 0.0211,0.1523 0.0358,0.306 0.0439,0.4607 0.0017,0.034 0.0036,0.0679 0.0055,0.1018 0.0369,0.1497 0.0676,0.3014 0.0918,0.4549 0.0052,0.0336 0.0106,0.0671 0.0161,0.1007 0.0523,0.1449 0.0985,0.2926 0.1384,0.4426 0.009,0.0334 0.0179,0.0668 0.027,0.1 0.0668,0.1382 0.1278,0.2797 0.1829,0.4242 0.0125,0.0326 0.0251,0.0652 0.0377,0.0977 0.0804,0.1301 0.1556,0.264 0.2252,0.4015 0.0155,0.0305 0.031,0.0609 0.0467,0.0912 0.094,0.1215 0.1832,0.2474 0.2672,0.3776 0.0186,0.0287 0.0372,0.0573 0.0559,0.0859 0.1061,0.1109 0.2079,0.2267 0.3049,0.3472 0.0213,0.0266 0.0427,0.053 0.0642,0.0794 0.1173,0.0992 0.2306,0.2037 0.3397,0.3135 1.7228,1.7334 3.7814,3.0515 6.0218,3.8902 0.1044,-1.2656 0.6508,-2.4589 1.55,-3.3637 0.2126,-0.2138 0.419,-0.4329 0.6188,-0.6567 0.1311,-0.1682 0.2587,-0.3386 0.383,-0.511 0.1125,-0.1803 0.2215,-0.3625 0.3268,-0.5464 0.0943,-0.1935 0.1848,-0.3884 0.2714,-0.5847 0.0732,-0.201 0.1424,-0.4031 0.2077,-0.606 0.0518,-0.2069 0.0995,-0.4145 0.1432,-0.6226 0.0302,-0.2121 0.0562,-0.4243 0.0782,-0.6367 0.0079,-0.2155 0.0117,-0.4307 0.0116,-0.6454 -0.0145,-0.2149 -0.0331,-0.4291 -0.0557,-0.6424 -0.0366,-0.2112 -0.0772,-0.4212 -0.1215,-0.63 -0.058,-0.2046 -0.1196,-0.4077 -0.1849,-0.6092 -0.0789,-0.1978 -0.1615,-0.3936 -0.2475,-0.5875 -0.1005,-0.1913 -0.2046,-0.3804 -0.3121,-0.5671 -0.1186,-0.1777 -0.2404,-0.3528 -0.3652,-0.5252 -0.1369,-0.1647 -0.2765,-0.3266 -0.419,-0.4853 z m -7.9052,8.871 c 1.5362,2.2711 3.598,4.1289 6.002,5.4149 v -0.5857 c -2.3315,-1.1222 -4.3884,-2.7708 -6.002,-4.8292 z m 7.2483,-9.9765 c -1.6554,-2.0735 -3.7796,-3.7316 -6.2037,-4.8292 v 0.5184 c 2.3622,0.9505 4.4832,2.4241 6.2037,4.3108 z m -0.2687,23.9652 c 0.2732,0.0943 0.5527,0.1681 0.8359,0.2211 -0.2271,0.1522 -0.4673,0.2891 -0.7193,0.4091 -0.2743,-0.0205 -0.5464,-0.0609 -0.8141,-0.1204 0.2461,-0.1534 0.479,-0.324 0.6975,-0.5098 z M 6.3180308,7.7443704 c -0.27614,0.08533 -0.54538,0.19082 -0.80551,0.31529 0.09495,-0.25727 0.20916,-0.51005 0.34299,-0.75614 0.23388,-0.14559 0.47755,-0.27384 0.7289,-0.38397 -0.10946,0.26958 -0.19821,0.54528 -0.26638,0.82482 z M 38.68354,26.99632 c -0.0622,0.1071 -0.1275,0.2121 -0.1959,0.3148 -0.0111,0.1244 -0.0261,0.2491 -0.0453,0.374 0.0941,-0.2222 0.1749,-0.4522 0.2412,-0.6888 z m -0.5407,1.2946 c 0.0268,-0.1003 0.0511,-0.2018 0.0728,-0.3046 0.0274,-0.1297 0.0503,-0.2594 0.0686,-0.3888 -0.1455,0.1928 -0.3024,0.3763 -0.4699,0.5495 -0.0026,0.2411 -0.0199,0.4839 -0.0526,0.727 0.1381,-0.1857 0.2654,-0.3804 0.3811,-0.5831 z m -0.5962,0.8547 c 0.0517,-0.2757 0.0827,-0.5518 0.094,-0.8262 -0.2092,0.1992 -0.4327,0.3832 -0.6691,0.5502 0.021,0.287 0.0213,0.5769 0,0.8674 0.2051,-0.1828 0.3974,-0.3804 0.5751,-0.5914 z m -0.5981,0.8356 c 0.1843,-0.1545 0.3593,-0.3203 0.5238,-0.4964 -0.0317,0.1267 -0.0678,0.2533 -0.1086,0.3795 -0.0323,0.0999 -0.067,0.1984 -0.1041,0.2954 -0.1358,0.1891 -0.2825,0.369 -0.4389,0.5388 0.0578,-0.2382 0.1002,-0.4777 0.1278,-0.7173 z m -0.1607,-0.0873 c 0.0316,-0.3056 0.0383,-0.6111 0.0214,-0.9136 -0.2698,0.1773 -0.5548,0.3331 -0.8528,0.4647 0.0532,0.3194 0.0806,0.6437 0.0813,0.9694 0.2637,-0.1534 0.5145,-0.3276 0.7501,-0.5205 z m -0.7529,0.7177 c 0.2525,-0.1412 0.4942,-0.3008 0.723,-0.477 -0.0398,0.2716 -0.0992,0.5428 -0.1792,0.8116 -0.1988,0.1913 -0.4107,0.3678 -0.6339,0.5282 0.0514,-0.2867 0.0812,-0.575 0.0901,-0.8628 z m -0.1669,-0.1022 c 0.0048,-0.3347 -0.0196,-0.668 -0.0719,-0.9964 -0.3332,0.1355 -0.6814,0.2411 -1.0415,0.3138 0.0984,0.352 0.1646,0.7123 0.1975,1.0759 0.3176,-0.1045 0.624,-0.2364 0.9159,-0.3933 z m -0.9027,0.568 c 0.3101,-0.0996 0.6099,-0.2246 0.8966,-0.3726 -0.0145,0.3026 -0.053,0.6057 -0.116,0.9063 -0.2545,0.1672 -0.5223,0.314 -0.8005,0.439 0.0332,-0.324 0.0396,-0.6494 0.0199,-0.9727 z m -0.1786,-0.123 c -0.0311,-0.3708 -0.0978,-0.7382 -0.1991,-1.0964 -0.3245,0.0557 -0.658,0.0848 -0.9982,0.0848 h -0.2738 c 0.1723,0.3936 0.3003,0.8028 0.3837,1.2199 0.3727,-0.0341 0.7365,-0.1046 1.0874,-0.2083 z m -1.0563,0.3763 c 0.3657,-0.0344 0.723,-0.1029 1.0683,-0.2026 0.018,0.3321 0.0075,0.6662 -0.0319,0.9986 -0.3067,0.1253 -0.6251,0.2243 -0.9518,0.2948 0.0051,-0.3652 -0.0232,-0.7305 -0.0846,-1.0908 z m -0.2011,-0.1551 c -0.086,-0.4222 -0.2192,-0.836 -0.3992,-1.2328 h -1.4707 c 0.2355,0.3742 0.4248,0.7683 0.5684,1.1744 l 0.3495,0.0369 c 0.3214,0.034 0.6395,0.0405 0.952,0.0215 z m -1.2419,0.119 0.2722,0.0288 c 0.3383,0.0358 0.673,0.042 1.0014,0.0207 0.0635,0.367 0.0917,0.7393 0.0842,1.1114 -0.3598,0.0662 -0.7288,0.098 -1.1029,0.0927 -0.0396,-0.4235 -0.1244,-0.844 -0.2549,-1.2536 z m -0.2468,-0.1972 c -0.148,-0.4002 -0.3421,-0.7878 -0.5826,-1.1546 h -1.5641 l 0.2286,0.3164 c 0.1588,0.22 0.3005,0.4473 0.4252,0.6803 z m -1.4001,0.0231 1.4625,0.1546 c 0.1377,0.4137 0.2272,0.8392 0.2688,1.2681 -0.3126,-0.0139 -0.6284,-0.0538 -0.9446,-0.1214 l -0.3434,-0.0734 c -0.1006,-0.4191 -0.2479,-0.8309 -0.4433,-1.2279 z m -0.2979,-0.2026 c -0.1071,-0.1907 -0.226,-0.3772 -0.357,-0.5587 l -0.3008,-0.4164 h -1.3456 c -0.008,0 -0.0158,0 -0.0237,-10e-5 l 0.4648,0.8099 z m -1.4578,0.0169 1.5554,0.1645 c 0.2012,0.3902 0.3538,0.7961 0.4595,1.2097 l -1.4683,-0.314 c -0.0997,-0.2449 -0.2171,-0.4859 -0.3523,-0.7215 z m -0.3125,-0.2042 -0.453,-0.7893 c -0.4006,-0.0052 -0.7996,-0.0247 -1.1963,-0.0581 l 0.3122,0.7056 c 0.0401,0.0045 0.0803,0.0089 0.1206,0.0132 z m -1.2574,0.0382 c 0.0077,9e-4 0.0155,0.0017 0.0232,0.0025 l 1.3388,0.1415 0.2558,0.4458 c 0.1115,0.1942 0.2104,0.3923 0.297,0.5932 l -1.5368,-0.3287 z m 0.4631,1.0465 0.1581,0.3573 c 0.1099,0.2485 0.2016,0.5005 0.2753,0.7546 l 1.4278,0.4668 c -0.062,-0.4225 -0.1717,-0.8422 -0.3312,-1.2515 z m 1.727,0.3694 c 0.153,0.4154 0.2567,0.8405 0.3133,1.2678 l 0.3333,0.109 c 0.3077,0.1006 0.6177,0.1735 0.9273,0.2202 0.0032,-0.431 -0.0415,-0.8636 -0.1356,-1.2894 z m 1.6197,0.3463 c 0.0872,0.4212 0.1278,0.8482 0.1232,1.2736 0.3715,0.0445 0.7417,0.0517 1.1063,0.0236 0.0461,-0.3692 0.0567,-0.7424 0.0318,-1.114 -0.329,-0.0134 -0.6612,-0.0547 -0.994,-0.126 z m 1.4311,0.1877 c 0.0236,0.3647 0.0137,0.731 -0.0293,1.0937 0.3323,-0.0359 0.6591,-0.1009 0.977,-0.1931 0.0738,-0.3264 0.1189,-0.6577 0.1356,-0.9897 -0.3538,0.0628 -0.7161,0.0933 -1.0833,0.0891 z m 1.2542,-0.1221 c -0.014,0.3236 -0.0542,0.6465 -0.1208,0.9653 0.2897,-0.095 0.5711,-0.2129 0.8415,-0.3524 0.094,-0.2923 0.1637,-0.5897 0.2097,-0.8892 -0.3006,0.1171 -0.6117,0.2098 -0.9304,0.2763 z m 1.1121,-0.3506 c -0.0387,0.2851 -0.0984,0.5688 -0.1792,0.8484 0.2388,-0.1361 0.468,-0.2894 0.6857,-0.459 0.1075,-0.2588 0.1948,-0.5222 0.2624,-0.7881 -0.2459,0.1513 -0.5029,0.2847 -0.7689,0.3987 z m 0.9744,-0.5311 c -0.0522,0.2352 -0.1193,0.469 -0.2015,0.6997 0.1736,-0.1528 0.3385,-0.3167 0.4935,-0.4909 0.0467,-0.0921 0.0912,-0.1858 0.1335,-0.2813 0.0537,-0.1215 0.1029,-0.2437 0.1476,-0.3667 -0.1821,0.1581 -0.3735,0.3047 -0.5731,0.4392 z m 0.8312,-0.677 c -0.0364,0.1192 -0.0768,0.2377 -0.1211,0.3556 0.1375,-0.1973 0.2637,-0.4048 0.3771,-0.6219 -0.0826,0.0916 -0.168,0.1804 -0.256,0.2663 z m -0.8771,1.4656 c -0.092,0.0826 -0.1865,0.1624 -0.2833,0.2389 -0.0488,0.115 -0.1015,0.2291 -0.158,0.3422 0.1579,-0.1824 0.3055,-0.3764 0.4413,-0.5811 z m -0.9123,1.0642 c 0.0562,-0.0868 0.1104,-0.1757 0.1625,-0.2666 0.0662,-0.1151 0.1278,-0.2317 0.1851,-0.3494 -0.1977,0.1383 -0.4034,0.264 -0.616,0.3768 -0.0766,0.2288 -0.1677,0.4544 -0.2735,0.6755 0.1885,-0.1337 0.3695,-0.2793 0.5419,-0.4363 z m -0.8299,0.6279 c 0.134,-0.2464 0.2483,-0.4994 0.3434,-0.757 -0.2604,0.1247 -0.5299,0.2302 -0.8062,0.3157 -0.0682,0.2796 -0.157,0.5556 -0.2665,0.8253 0.2514,-0.1102 0.4953,-0.2385 0.7293,-0.384 z m -0.8262,0.6091 c 0.223,-0.0897 0.4406,-0.1931 0.6515,-0.3097 -0.0692,0.1108 -0.1424,0.22 -0.22,0.3274 -0.0614,0.085 -0.1247,0.1679 -0.1899,0.2486 -0.1875,0.1379 -0.3826,0.2635 -0.5839,0.3767 0.1283,-0.2088 0.2423,-0.4236 0.3423,-0.643 z m -0.126,-0.133 c 0.1239,-0.281 0.2242,-0.5695 0.301,-0.8626 -0.311,0.0847 -0.63,0.1442 -0.9538,0.1769 -0.0476,0.3203 -0.1211,0.6373 -0.2205,0.9474 0.2978,-0.064 0.5899,-0.1515 0.8733,-0.2617 z m -0.9366,0.4485 c 0.2836,-0.0558 0.5624,-0.1325 0.8341,-0.229 -0.1213,0.2461 -0.2612,0.4857 -0.4201,0.7166 -0.2476,0.12 -0.5034,0.222 -0.7648,0.305 0.1369,-0.2567 0.2539,-0.5217 0.3508,-0.7926 z m -0.1273,-0.1493 c 0.1074,-0.3169 0.1866,-0.6415 0.2377,-0.9702 -0.3583,0.0253 -0.7217,0.0175 -1.0864,-0.0253 -0.0144,0.3654 -0.0622,0.7286 -0.1427,1.0847 0.3341,-6e-4 0.6658,-0.0308 0.9914,-0.0892 z m -1.0324,0.2594 c 0.3253,0.0017 0.6486,-0.0239 0.9666,-0.0755 -0.1069,0.2834 -0.2366,0.5598 -0.389,0.8262 -0.2931,0.0796 -0.5926,0.1361 -0.8953,0.1683 0.1311,-0.2979 0.2371,-0.6053 0.3177,-0.919 z m -0.132,-0.1725 c 0.0841,-0.3624 0.1336,-0.7324 0.1473,-1.1047 -0.3259,-0.0478 -0.6521,-0.124 -0.9758,-0.2297 l -0.2595,-0.0849 c 0.043,0.4279 0.0391,0.857 -0.0098,1.2794 0.3648,0.0834 0.7323,0.1294 1.0978,0.1399 z m -1.1198,0.0296 c 0.3582,0.0809 0.7188,0.1268 1.0778,0.1395 -0.0849,0.3213 -0.1975,0.6359 -0.3372,0.9397 -0.3299,0.0238 -0.6629,0.019 -0.9952,-0.0155 0.117,-0.3457 0.2023,-0.7019 0.2546,-1.0637 z m -0.1437,-0.21 c 0.048,-0.4282 0.0484,-0.8632 -8e-4,-1.2966 l -1.3987,-0.4571 c 0.109,0.4291 0.1679,0.8627 0.1798,1.2936 l 0.3205,0.1436 c 0.2955,0.1323 0.5962,0.2375 0.8992,0.3165 z m -1.2175,-0.2728 0.2495,0.1117 c 0.311,0.1394 0.6274,0.2493 0.9464,0.3313 -0.0522,0.3687 -0.1398,0.7315 -0.2612,1.0831 -0.3624,-0.049 -0.7232,-0.1334 -1.0773,-0.2548 0.0924,-0.415 0.1409,-0.8412 0.1426,-1.2713 z m -0.1822,1.4376 c -0.0896,0.3543 -0.2114,0.6996 -0.3637,1.0312 0.3269,0.0692 0.6577,0.109 0.9884,0.12 0.1704,-0.2875 0.3151,-0.5884 0.4329,-0.8991 -0.3557,-0.0503 -0.7097,-0.1339 -1.0576,-0.2521 z m 1.2303,0.2739 c -0.1127,0.3033 -0.2502,0.598 -0.4114,0.8804 0.3045,-3e-4 0.6081,-0.0248 0.908,-0.0733 0.1792,-0.2489 0.3369,-0.5101 0.4726,-0.7806 -0.3217,0.0178 -0.6459,0.0093 -0.9692,-0.0265 z m 1.1649,0.0122 c -0.1246,0.2593 -0.2684,0.5105 -0.4312,0.7513 0.2685,-0.0551 0.5333,-0.1295 0.7921,-0.2229 0.1819,-0.2128 0.3459,-0.4362 0.492,-0.6682 -0.2801,0.0674 -0.5653,0.1142 -0.8529,0.1398 z m 1.0891,-0.2018 c -0.1222,0.2076 -0.2578,0.4092 -0.4069,0.6032 0.2118,-0.0913 0.4187,-0.1957 0.6194,-0.3131 0.0732,-0.0733 0.1448,-0.1491 0.2147,-0.2273 0.0882,-0.0985 0.1724,-0.1992 0.2526,-0.3021 -0.2218,0.0937 -0.4489,0.1735 -0.6798,0.2393 z m 0.9982,-0.3851 c -0.0714,0.1023 -0.1464,0.2027 -0.2251,0.3014 0.192,-0.1452 0.3763,-0.3039 0.5515,-0.4756 -0.1071,0.0616 -0.216,0.1197 -0.3264,0.1742 z m -1.285,1.1214 c -0.1128,0.0499 -0.227,0.0962 -0.3423,0.1388 -0.0816,0.0941 -0.1667,0.1861 -0.2552,0.2759 0.206,-0.1243 0.4056,-0.2625 0.5975,-0.4147 z m -1.1937,0.7276 c 0.0803,-0.0652 0.1592,-0.133 0.2368,-0.2033 0.098,-0.0887 0.1923,-0.1802 0.2827,-0.2739 -0.2302,0.0697 -0.4642,0.1253 -0.7007,0.1664 -0.1429,0.1936 -0.2987,0.3797 -0.4671,0.5569 0.22,-0.0685 0.4365,-0.1505 0.6483,-0.2461 z m -0.981,0.3388 c 0.2029,-0.1925 0.3891,-0.3974 0.5585,-0.6127 -0.2856,0.0375 -0.5741,0.0541 -0.863,0.0495 -0.1506,0.2447 -0.3198,0.4793 -0.5067,0.7017 0.2728,-0.0266 0.544,-0.0728 0.8112,-0.1385 z m -0.9726,0.3225 c 0.2395,-0.016 0.4781,-0.0467 0.7144,-0.0919 -0.0998,0.0838 -0.2031,0.1649 -0.3099,0.2429 -0.0844,0.0617 -0.1697,0.1207 -0.2561,0.1769 -0.2207,0.0729 -0.4448,0.1318 -0.6708,0.1768 0.1858,-0.1585 0.3601,-0.3272 0.5224,-0.5047 z m -0.0789,-0.1656 c 0.204,-0.2286 0.3879,-0.4718 0.551,-0.7266 -0.3219,-0.016 -0.6434,-0.0586 -0.9613,-0.1283 -0.1436,0.2899 -0.3109,0.5685 -0.5006,0.8324 0.3029,0.0317 0.6075,0.0392 0.9109,0.0225 z m -1.0285,0.1354 c 0.2868,0.0351 0.5755,0.0489 0.8636,0.0415 -0.1908,0.1963 -0.3974,0.3805 -0.6192,0.5506 -0.2726,0.0373 -0.5471,0.0547 -0.8213,0.0525 0.209,-0.2015 0.4016,-0.4171 0.5769,-0.6446 z m -0.7565,0.8106 c -0.1799,0.1596 -0.3708,0.309 -0.5722,0.4472 0.2295,-0.021 0.4584,-0.056 0.6855,-0.1052 0.0919,-0.047 0.183,-0.0967 0.2734,-0.1492 0.1143,-0.0664 0.2255,-0.1361 0.3335,-0.2091 -0.2398,0.0202 -0.4803,0.0256 -0.7202,0.0163 z m 1.0679,-0.0561 c -0.0993,0.075 -0.2015,0.1472 -0.3066,0.2166 0.2272,-0.0784 0.451,-0.172 0.6702,-0.2808 -0.1206,0.0253 -0.242,0.0466 -0.3636,0.0642 z m -1.5667,0.6672 c -0.1227,0.0124 -0.2455,0.0211 -0.3683,0.0257 -0.1065,0.0641 -0.2156,0.1251 -0.3273,0.1831 0.2341,-0.0542 0.4664,-0.1237 0.6956,-0.2088 z m 3.1366,-1.3122 c 0.0972,-0.0799 0.1913,-0.1624 0.2821,-0.2473 0.1191,-0.0302 0.2373,-0.0642 0.3546,-0.102 -0.2065,0.1311 -0.4192,0.2475 -0.6367,0.3493 z m 4.9536,-3.6907 c 0.0681,-0.1065 0.1324,-0.2145 0.1929,-0.3237 0.1042,-0.066 0.2065,-0.1353 0.3067,-0.2079 -0.1565,0.1894 -0.3235,0.3667 -0.4996,0.5316 z m 3.5781,-5.0515 c 0.0319,-0.1224 0.0599,-0.2449 0.0839,-0.3675 0.0788,-0.0951 0.1547,-0.1927 0.2276,-0.2928 -0.0905,0.2286 -0.1948,0.4489 -0.3115,0.6603 z m -17.7633,10.9858 c -0.1204,-0.0263 -0.2398,-0.0564 -0.3581,-0.0901 -0.1209,0.0278 -0.2435,0.0519 -0.3675,0.0723 0.2392,0.0212 0.4815,0.0275 0.7256,0.0178 z m -1.3907,-0.1173 c 0.1029,-0.0053 0.2064,-0.0133 0.3101,-0.0243 0.1311,-0.0139 0.2608,-0.0321 0.3888,-0.0546 -0.2271,-0.0796 -0.4491,-0.1731 -0.6645,-0.2797 -0.2287,0.072 -0.4635,0.1304 -0.7033,0.1742 0.2182,0.0747 0.4415,0.1365 0.6689,0.1844 z m -0.9922,-0.3063 c 0.2767,-0.0356 0.5471,-0.0913 0.8099,-0.1652 -1.2778,-0.6995 -2.302,-1.8734 -2.787,-3.3753 l -1.6225,-5.0237 c -0.8554,-2.6488 -1.046,-5.441 -0.5907,-8.137 -0.0823,-0.0098 -0.1649,-0.0177 -0.2477,-0.0235 -0.5704,2.4147 -0.6109,4.9494 -0.0882,7.4234 l 1.0916,5.1669 c 0.4091,1.9365 1.7413,3.437 3.4346,4.1344 z m -4.6097,-16.734 c -0.5694,2.4299 -0.6077,4.9794 -0.0819,7.468 l 1.0915,5.167 c 0.3984,1.8859 1.6472,3.3701 3.2566,4.1329 -0.1297,0.0088 -0.2606,0.0133 -0.3926,0.0133 -0.1043,0 -0.2079,-0.0027 -0.3108,-0.0083 -2.0916,-0.6772 -3.6968,-2.542 -3.9413,-4.882 l -0.5487,-5.2534 c -0.2356,-2.2552 -0.016,-4.5111 0.6214,-6.6411 h 0.113 c 0.0644,0 0.1286,0.0012 0.1928,0.0036 z m 0.2121,-0.1584 c 0.0791,0.006 0.158,0.0138 0.2364,0.0233 0.0273,-0.1519 0.0566,-0.3036 0.0879,-0.4549 -0.0649,-0.0199 -0.1303,-0.0385 -0.1962,-0.0559 -0.0451,0.1619 -0.0878,0.3244 -0.1281,0.4875 z m -0.0363,-0.5278 c -0.0479,0.1718 -0.0929,0.3444 -0.1354,0.5175 -0.0775,-0.0034 -0.1553,-0.0051 -0.2332,-0.0051 h -0.061 c 0.0585,-0.1884 0.1203,-0.3757 0.1854,-0.562 0.0819,0.0146 0.1634,0.0311 0.2442,0.0496 z m 0.2109,-0.1234 c 0.0621,0.0164 0.1238,0.034 0.1852,0.0525 0.0286,-0.1317 0.0588,-0.2633 0.0906,-0.3944 -0.0496,-0.025 -0.0996,-0.0492 -0.15,-0.0727 -0.0438,0.1378 -0.0857,0.276 -0.1258,0.4146 z m -0.0298,-0.4838 c -0.0469,0.1472 -0.0918,0.2949 -0.1347,0.4432 -0.0771,-0.0176 -0.1547,-0.0338 -0.2329,-0.0481 0.057,-0.1579 0.1163,-0.3151 0.178,-0.4714 0.0638,0.0242 0.127,0.0497 0.1896,0.0763 z m 0.2082,-0.0938 c 0.0468,0.0216 0.0932,0.0438 0.1393,0.0666 0.029,-0.1146 0.0592,-0.2289 0.0906,-0.343 -0.0361,-0.0264 -0.0725,-0.0522 -0.1092,-0.0777 -0.0415,0.1176 -0.0818,0.2357 -0.1207,0.3541 z m -0.0245,-0.4512 c -0.0453,0.1271 -0.0889,0.2546 -0.1311,0.3826 -0.0592,-0.0249 -0.1189,-0.0489 -0.179,-0.0717 0.0544,-0.1337 0.1104,-0.2668 0.1682,-0.3991 0.0478,0.0287 0.0951,0.0581 0.1419,0.0882 z m 0.2045,-0.0683 c 0.0332,0.0226 0.0662,0.0456 0.0988,0.069 0.0286,-0.0997 0.058,-0.199 0.0883,-0.2982 -0.0242,-0.0245 -0.0488,-0.0489 -0.0736,-0.073 -0.0388,0.1004 -0.0766,0.2012 -0.1135,0.3022 z m -0.0195,-0.4272 c -0.0431,0.1101 -0.085,0.2208 -0.1258,0.3317 -0.0435,-0.0276 -0.0874,-0.0546 -0.1318,-0.081 0.051,-0.1138 0.1033,-0.227 0.1569,-0.3397 0.034,0.0292 0.0676,0.0589 0.1007,0.089 z m 0.2002,-0.0459 c 0.0213,0.0203 0.0425,0.0407 0.0636,0.0613 0.0273,-0.0857 0.0553,-0.1713 0.084,-0.2566 -0.0144,-0.02 -0.0289,-0.0398 -0.0435,-0.0596 -0.0354,0.0847 -0.0701,0.1697 -0.1041,0.2549 z m -0.0146,-0.4092 c -0.0405,0.0953 -0.0801,0.191 -0.1188,0.287 -0.0301,-0.0268 -0.0606,-0.0531 -0.0913,-0.0791 0.0471,-0.0966 0.0952,-0.1929 0.1442,-0.2886 0.0223,0.0267 0.0442,0.0536 0.0659,0.0807 z m -0.1852,-0.2191 c -0.0299,-0.0334 -0.0602,-0.0665 -0.091,-0.0991 -0.065,0.1064 -0.1287,0.2135 -0.1913,0.3213 0.0414,0.0309 0.0823,0.0624 0.1228,0.0945 0.0521,-0.106 0.1052,-0.2116 0.1595,-0.3167 z m -0.2354,0.4733 c -0.0434,-0.0349 -0.0874,-0.0692 -0.1321,-0.1027 -0.0712,0.1257 -0.1408,0.2521 -0.2088,0.3795 0.0575,0.029 0.1143,0.0592 0.1706,0.0902 0.0553,-0.123 0.1121,-0.2452 0.1703,-0.367 z m -0.2395,0.5229 c -0.0595,-0.0331 -0.1198,-0.0649 -0.1807,-0.0957 -0.0775,0.1489 -0.1529,0.2988 -0.2259,0.45 0.0762,0.0224 0.1518,0.0466 0.2268,0.0724 0.058,-0.143 0.118,-0.2852 0.1798,-0.4267 z m -0.2431,0.5848 c -0.0785,-0.0269 -0.1578,-0.0519 -0.2379,-0.075 -0.084,0.1784 -0.165,0.3583 -0.2428,0.5395 l 0.0606,0.0063 c 0.0776,0.0083 0.1549,0.0182 0.2317,0.0297 0.0602,-0.1677 0.123,-0.3346 0.1884,-0.5005 z m -0.2462,0.664 c -0.0636,-0.0092 -0.1274,-0.0171 -0.1915,-0.0239 l -0.1123,-0.0118 c -0.0862,0.2066 -0.1682,0.415 -0.2461,0.625 h 0.3572 c 0.0606,-0.1976 0.125,-0.3941 0.1927,-0.5893 z m -0.2441,0.7595 h -0.368 c -0.6553,1.8249 -0.9996,3.7665 -0.9996,5.7441 v 5.2822 c 0,2.8462 2.0521,5.21 4.749,5.6754 -1.8491,-0.8376 -3.2185,-2.614 -3.4458,-4.7894 l -0.5488,-5.2534 c -0.2361,-2.2605 -0.0195,-4.522 0.6132,-6.6589 z m -0.4863,-0.1702 c 0.0794,-0.2163 0.1631,-0.4308 0.251,-0.6436 l -5.9745992,-0.6318 c -3.12281,-0.3302 -5.41842402,-3.0576 -5.27047002,-6.1738 -0.162958,0.5346 -0.250648,1.1023 -0.250648,1.6907 0,3.1803 2.56251802,5.7585 5.72353802,5.7585 z M 1.1368708,15.15992 c -0.0162,0.1023 -0.02978,0.2055 -0.04066,0.3097 -0.33041602,3.1629 1.9502,5.9965 5.09391,6.3289 l 6.0257192,0.6372 c 0.0809,-0.1901 0.1652,-0.3787 0.2529,-0.5658 -0.0622,-0.0158 -0.1249,-0.0304 -0.188,-0.0439 l -6.1593092,-1.3172 c -2.82941,-0.6051 -4.74933,-3.1595 -4.66615,-5.9689 -0.11807,0.1992 -0.22452,0.4062 -0.31841,0.62 z m 0.50405,-0.9128 c -0.23135,2.8441 1.66787,5.4862 4.51568,6.0952 l 6.1593392,1.3173 c 0.0763,0.0163 0.1521,0.0341 0.2273,0.0538 0.0772,-0.1605 0.157,-0.3199 0.2393,-0.4779 -0.1849,-0.086 -0.3758,-0.1613 -0.5716,-0.2253 l -5.9887192,-1.9578 c -2.42937,-0.7942 -3.99546,-3.0255 -4.07053,-5.4545 -0.18513,0.2035 -0.35593,0.4204 -0.51077,0.6492 z m 0.50829,-0.8946 c -0.16737,0.1733 -0.32432,0.3568 -0.46981,0.5494 0.01839,-0.1296 0.04126,-0.2595 0.06873,-0.3895 0.02167,-0.1027 0.04593,-0.204 0.0727,-0.3041 0.11556,-0.2027 0.24288,-0.3972 0.38094,-0.5829 -0.03269,0.2431 -0.05001,0.4859 -0.05256,0.7271 z m 0.16888,0.07 c 0.00315,2.4246 1.54017,4.6782 3.95641,5.468 l 5.9887392,1.9578 c 0.2052,0.067 0.405,0.1461 0.5986,0.2365 0.0726,-0.1361 0.1471,-0.2713 0.2234,-0.4056 -0.2682,-0.1882 -0.5553,-0.3519 -0.8584,-0.4877 l -5.7525292,-2.5768 c -1.99004,-0.8914 -3.24709,-2.7563 -3.46386,-4.7892 -0.24638,0.1805 -0.4779,0.3802 -0.69236,0.597 z m 0.67469,-0.7935 c -0.23667,0.1672 -0.46055,0.3514 -0.66989,0.551 0.01124,-0.2745 0.04224,-0.5504 0.09393,-0.8263 0.17792,-0.2114 0.37051,-0.4093 0.57599,-0.5924 -0.02134,0.2906 -0.02106,0.5806 -3e-5,0.8677 z m 0.17664,0.0843 c 0.18117,2.0109 1.41006,3.8663 3.37369,4.746 l 5.7526292,2.5768 c 0.3084,0.1382 0.601,0.3044 0.8746,0.4953 0.0677,-0.1164 0.1368,-0.2321 0.2073,-0.3469 -0.3119,-0.3099 -0.6642,-0.5812 -1.0502,-0.8055 l -5.4533592,-3.1677 c -1.53178,-0.8898 -2.51629,-2.3669 -2.83473,-3.9855 -0.30504,0.1373 -0.59596,0.3008 -0.86993,0.4875 z m 0.83864,-0.6598 c -0.29801,0.1317 -0.58312,0.2875 -0.85289,0.4648 -0.01697,-0.3026 -0.0102,-0.6082 0.02136,-0.9139 0.23572,-0.1929 0.48659,-0.367 0.75022,-0.5205 6.9e-4,0.3259 0.0281,0.6501 0.08131,0.9696 z m -0.07846,-1.1668 c 0.00893,-0.2879 0.0388,-0.5762 0.09021,-0.863 -0.22318,0.1603 -0.43512,0.3367 -0.63389,0.5281 -0.08013,0.2689 -0.13968,0.5402 -0.1794,0.812 0.22882,-0.1763 0.47049,-0.3359 0.72308,-0.4771 z m -0.91375,0.6304 c 0.02763,-0.2398 0.07012,-0.4795 0.12794,-0.7178 -0.15688,0.1703 -0.30399,0.3508 -0.4402,0.5405 -0.037,0.0967 -0.07163,0.1949 -0.10383,0.2946 -0.04082,0.1264 -0.07705,0.2532 -0.1088,0.3801 0.16488,-0.1765 0.34023,-0.3426 0.52489,-0.4974 z m -0.75685,0.761 c 0.02393,-0.1226 0.05183,-0.245 0.0838,-0.3673 -0.11662,0.2112 -0.22077,0.4314 -0.31126,0.6598 0.07287,-0.0999 0.14873,-0.1976 0.22746,-0.2925 z m 0.72037,-1.5503 c 0.08313,-0.0921 0.169,-0.1814 0.25746,-0.2678 0.03666,-0.1197 0.07728,-0.239 0.12194,-0.3576 -0.13842,0.1984 -0.26531,0.407 -0.3794,0.6254 z m 0.79766,-1.1550496 c -0.04713,0.09275 -0.09204,0.18734 -0.13466,0.28358 -0.05362,0.12117 -0.10274,0.2432696 -0.14744,0.3659696 0.18216,-0.1581 0.37363,-0.3046596 0.57318,-0.4391096 0.05239,-0.23555 0.11958,-0.46945 0.20189,-0.70051 -0.17335,0.15251 -0.33807,0.31611 -0.49297,0.49007 z m 0.62076,-0.81783 c 0.04871,-0.11475 0.1013,-0.22858 0.1578,-0.3414 -0.15761,0.18202 -0.30492,0.3755 -0.44058,0.5798 0.09189,-0.08258 0.18621,-0.16205 0.28278,-0.2384 z m -2.87648,5.0591796 c -0.0191,0.125 -0.03414,0.2499 -0.04522,0.3743 -0.06847,0.1029 -0.13384,0.208 -0.19595,0.3152 0.0663,-0.2369 0.14706,-0.467 0.24117,-0.6895 z M 17.07864,40.35872 c 0.1254,-0.0071 0.2498,-0.0183 0.373,-0.0332 0.1141,0.046 0.2298,0.0884 0.3468,0.1273 -0.2438,-0.0161 -0.4841,-0.0477 -0.7198,-0.0941 z M 8.5007008,4.6365004 c 0.11287,-0.05002 0.2272,-0.09639 0.34271,-0.13907 0.08162,-0.09416 0.16679,-0.18626 0.25525,-0.27613 -0.20615,0.12435 -0.40593,0.26277 -0.59796,0.4152 z m 1.19419,-0.72814 c -0.08017,0.06516 -0.15906,0.13283 -0.23649,0.20302 -0.0982,0.08892 -0.19258,0.18049 -0.28313,0.27448 0.23038,-0.06992 0.46478,-0.12557 0.70154,-0.16674 0.1430292,-0.19369 0.2989292,-0.37989 0.4674292,-0.55724 -0.2204,0.06857 -0.4372992,0.15075 -0.6493492,0.24648 z m 0.8985492,-0.49357 c 0.0911,-0.08512 0.1854,-0.16782 0.2829,-0.24794 -0.2182,0.10203 -0.4315,0.21876 -0.6384,0.35026 0.1175,-0.0379 0.2361,-0.072 0.3555,-0.10232 z m 0.0835,0.15452 c -0.203,0.19259 -0.3894,0.3976 -0.5588,0.61298 0.2858,-0.03758 0.5744,-0.05421 0.8635,-0.04949 0.1508,-0.24476 0.3199,-0.47952 0.5069,-0.70196 -0.2731,0.02655 -0.5444,0.07275 -0.8116,0.13847 z m 1.0519,-0.15675 c -0.2041,0.22864 -0.3881,0.47183 -0.5512,0.72673 0.322,0.01603 0.6435,0.05865 0.9616,0.1284 0.1435,-0.28994 0.3109,-0.56852 0.5006,-0.83249 -0.303,-0.03182 -0.6076,-0.0393 -0.911,-0.02264 z m 1.1038,0.04622 c -0.1993,0.26795 -0.3745,0.5521 -0.524,0.84873 0.3486,0.08745 0.6921,0.20789 1.0258,0.36207 0.1259,-0.34295 0.2829,-0.67354 0.4688,-0.9873 -0.318,-0.10332 -0.6429,-0.17776 -0.9706,-0.2235 z m 1.1345,0.27953 c -0.1914,0.31846 -0.352,0.65508 -0.4793,1.00484 0.2948,0.14677 0.5814,0.32046 0.8566,0.52157 l 0.2221,0.16235 c 0.0905,-0.4204 0.2259,-0.82724 0.4021,-1.21393 -0.3215,-0.19294 -0.657,-0.35113 -1.0015,-0.47483 z m 1.1466,0.56493 c -0.1771,0.39241 -0.311,0.806 -0.3971,1.2335 l 1.19,0.86993 c 0.0281,-0.44196 0.1051,-0.87273 0.2261,-1.2862 l -0.262,-0.23738 c -0.2401,-0.21743 -0.4934,-0.41067 -0.757,-0.57985 z m 1.1589,0.94399 c -0.114,0.41124 -0.1833,0.83953 -0.203,1.27857 l 1.2655,0.9251 v -0.39206 c 0,-0.27158 0.0182,-0.5389 0.0533,-0.80078 z m -0.2642,-3.91625 c 0.1233,5.3e-4 0.2464,0.00496 0.369,0.01322 0.1127,-0.05256 0.2277,-0.10184 0.3448,-0.1477 -0.2385,0.02921 -0.4769,0.07387 -0.7138,0.13448 z"
       clip-rule="evenodd"
       fill-rule="evenodd"
       id="path1-6"
       style="fill:url(#linearGradient3)" />
  </g>
  <g
     id="logotype"
     transform="translate(46, 9)">
    <path
       fill="#e7f2f2"
       d="M23.50 25L20.77 25L11.54 12.75L20.77 0.49L23.50 0.49L14.08 12.75L23.50 25ZM11.01 25L8.80 25L8.80 0.49L11.01 0.49L11.01 25ZM37.99 25L37.29 25L36.13 23.26Q35.41 24.20 34.33 24.77Q33.26 25.34 31.98 25.34L31.98 25.34L31.45 25.34Q30.39 25.34 29.45 24.94Q28.51 24.54 27.81 23.84Q27.11 23.14 26.70 22.20Q26.30 21.26 26.30 20.20L26.30 20.20L26.30 20.03Q26.30 18.97 26.70 18.03Q27.11 17.09 27.81 16.39Q28.51 15.69 29.45 15.28Q30.39 14.88 31.45 14.88L31.45 14.88L35.89 14.88L35.89 12.18Q35.89 11.55 35.65 10.99Q35.41 10.44 35.00 10.03Q34.59 9.62 34.04 9.38Q33.48 9.14 32.85 9.14L32.85 9.14L31.62 9.14Q30.99 9.14 30.43 9.38Q29.87 9.62 29.46 10.03Q29.05 10.44 28.81 10.99Q28.58 11.55 28.58 12.18L28.58 12.18L28.58 12.81L26.47 12.47L26.47 12.30Q26.47 11.24 26.88 10.30Q27.28 9.36 27.98 8.66Q28.68 7.96 29.62 7.56Q30.56 7.16 31.62 7.16L31.62 7.16L32.85 7.16Q33.91 7.16 34.85 7.56Q35.79 7.96 36.49 8.66Q37.19 9.36 37.59 10.30Q37.99 11.24 37.99 12.30L37.99 12.30L37.99 25ZM35.89 20.32L35.89 16.52L31.45 16.52Q30.81 16.52 30.26 16.76Q29.70 17.00 29.29 17.42Q28.88 17.84 28.64 18.39Q28.40 18.95 28.40 19.58L28.40 19.58L28.40 20.32Q28.40 20.95 28.64 21.51Q28.88 22.06 29.29 22.47Q29.70 22.88 30.26 23.12Q30.81 23.36 31.45 23.36L31.45 23.36L32.85 23.36Q33.48 23.36 34.04 23.12Q34.59 22.88 35.00 22.47Q35.41 22.06 35.65 21.51Q35.89 20.95 35.89 20.32L35.89 20.32ZM45.17 3.30L42.73 3.30L42.73 0.49L45.17 0.49L45.17 3.30ZM45.00 25L42.90 25L42.90 7.50L45.00 7.50L45.00 25ZM75.95 25L73.74 25L73.74 8.20L73.59 9.24L67.90 25L66.74 25L61.00 9.24L60.86 8.20L60.86 25L58.65 25L58.65 0.49L59.80 0.49L67.23 20.59L67.30 21.50L67.37 20.59L74.79 0.49L75.95 0.49L75.95 25ZM92.18 25L91.48 25L90.32 23.26Q89.60 24.20 88.53 24.77Q87.45 25.34 86.17 25.34L86.17 25.34L85.64 25.34Q84.58 25.34 83.64 24.94Q82.70 24.54 82.00 23.84Q81.30 23.14 80.90 22.20Q80.49 21.26 80.49 20.20L80.49 20.20L80.49 20.03Q80.49 18.97 80.90 18.03Q81.30 17.09 82.00 16.39Q82.70 15.69 83.64 15.28Q84.58 14.88 85.64 14.88L85.64 14.88L90.08 14.88L90.08 12.18Q90.08 11.55 89.84 10.99Q89.60 10.44 89.19 10.03Q88.78 9.62 88.23 9.38Q87.67 9.14 87.04 9.14L87.04 9.14L85.81 9.14Q85.18 9.14 84.62 9.38Q84.07 9.62 83.66 10.03Q83.25 10.44 83.01 10.99Q82.77 11.55 82.77 12.18L82.77 12.18L82.77 12.81L80.67 12.47L80.67 12.30Q80.67 11.24 81.07 10.30Q81.47 9.36 82.17 8.66Q82.87 7.96 83.81 7.56Q84.75 7.16 85.81 7.16L85.81 7.16L87.04 7.16Q88.10 7.16 89.04 7.56Q89.98 7.96 90.68 8.66Q91.38 9.36 91.78 10.30Q92.18 11.24 92.18 12.30L92.18 12.30L92.18 25ZM90.08 20.32L90.08 16.52L85.64 16.52Q85.01 16.52 84.45 16.76Q83.90 17.00 83.49 17.42Q83.08 17.84 82.84 18.39Q82.60 18.95 82.60 19.58L82.60 19.58L82.60 20.32Q82.60 20.95 82.84 21.51Q83.08 22.06 83.49 22.47Q83.90 22.88 84.45 23.12Q85.01 23.36 85.64 23.36L85.64 23.36L87.04 23.36Q87.67 23.36 88.23 23.12Q88.78 22.88 89.19 22.47Q89.60 22.06 89.84 21.51Q90.08 20.95 90.08 20.32L90.08 20.32ZM108.08 20.20L108.08 20.20Q108.08 21.26 107.68 22.20Q107.27 23.14 106.57 23.84Q105.87 24.54 104.93 24.94Q103.99 25.34 102.93 25.34L102.93 25.34L101.53 25.34Q100.47 25.34 99.53 24.94Q98.59 24.54 97.89 23.84Q97.19 23.14 96.79 22.20Q96.39 21.26 96.39 20.20L96.39 20.20L96.39 12.30Q96.39 11.24 96.79 10.30Q97.19 9.36 97.89 8.66Q98.59 7.96 99.53 7.56Q100.47 7.16 101.53 7.16L101.53 7.16L102.93 7.16Q103.99 7.16 104.93 7.56Q105.87 7.96 106.57 8.66Q107.27 9.36 107.68 10.30Q108.08 11.24 108.08 12.30L108.08 12.30L108.08 13.00L105.98 13.34L105.98 12.18Q105.98 11.55 105.74 10.99Q105.50 10.44 105.09 10.03Q104.68 9.62 104.12 9.38Q103.57 9.14 102.93 9.14L102.93 9.14L101.53 9.14Q100.90 9.14 100.34 9.38Q99.79 9.62 99.38 10.03Q98.97 10.44 98.73 10.99Q98.49 11.55 98.49 12.18L98.49 12.18L98.49 20.32Q98.49 20.95 98.73 21.51Q98.97 22.06 99.38 22.47Q99.79 22.88 100.34 23.12Q100.90 23.36 101.53 23.36L101.53 23.36L102.93 23.36Q103.57 23.36 104.12 23.12Q104.68 22.88 105.09 22.47Q105.50 22.06 105.74 21.51Q105.98 20.95 105.98 20.32L105.98 20.32L105.98 19.16L108.08 19.50L108.08 20.20ZM125.03 25L122.30 25L115.15 16.25L122.30 7.50L125.03 7.50L117.72 16.25L125.03 25ZM114.74 25L112.64 25L112.64 0.49L114.74 0.49L114.74 25ZM139.52 25L138.82 25L137.66 23.26Q136.94 24.20 135.87 24.77Q134.79 25.34 133.51 25.34L133.51 25.34L132.98 25.34Q131.92 25.34 130.98 24.94Q130.04 24.54 129.34 23.84Q128.64 23.14 128.24 22.20Q127.83 21.26 127.83 20.20L127.83 20.20L127.83 20.03Q127.83 18.97 128.24 18.03Q128.64 17.09 129.34 16.39Q130.04 15.69 130.98 15.28Q131.92 14.88 132.98 14.88L132.98 14.88L137.42 14.88L137.42 12.18Q137.42 11.55 137.18 10.99Q136.94 10.44 136.53 10.03Q136.12 9.62 135.57 9.38Q135.01 9.14 134.38 9.14L134.38 9.14L133.15 9.14Q132.52 9.14 131.96 9.38Q131.41 9.62 131.00 10.03Q130.58 10.44 130.35 10.99Q130.11 11.55 130.11 12.18L130.11 12.18L130.11 12.81L128.00 12.47L128.00 12.30Q128.00 11.24 128.41 10.30Q128.81 9.36 129.51 8.66Q130.21 7.96 131.15 7.56Q132.09 7.16 133.15 7.16L133.15 7.16L134.38 7.16Q135.44 7.16 136.38 7.56Q137.32 7.96 138.02 8.66Q138.72 9.36 139.12 10.30Q139.52 11.24 139.52 12.30L139.52 12.30L139.52 25ZM137.42 20.32L137.42 16.52L132.98 16.52Q132.35 16.52 131.79 16.76Q131.23 17.00 130.82 17.42Q130.41 17.84 130.17 18.39Q129.94 18.95 129.94 19.58L129.94 19.58L129.94 20.32Q129.94 20.95 130.17 21.51Q130.41 22.06 130.82 22.47Q131.23 22.88 131.79 23.12Q132.35 23.36 132.98 23.36L132.98 23.36L134.38 23.36Q135.01 23.36 135.57 23.12Q136.12 22.88 136.53 22.47Q136.94 22.06 137.18 21.51Q137.42 20.95 137.42 20.32L137.42 20.32ZM146.53 25L144.43 25L144.43 0.49L146.53 0.49L146.53 25ZM154.24 25L152.14 25L152.14 0.49L154.24 0.49L154.24 25Z"
       id="path2" />
  </g>
</svg>
